<svg id="svg" version="1.1" xmlns="http://www.w3.org/2000/svg" xmlns:xlink="http://www.w3.org/1999/xlink" width="400" height="268.7022900763359" viewBox="0, 0, 400,268.7022900763359"><g id="svgg"><path id="path0" d="M71.147 7.168 C 71.048 7.267,70.968 7.630,70.968 7.975 L 70.968 8.602 67.204 8.602 L 63.441 8.602 63.441 9.274 C 63.441 9.946,63.440 9.946,60.772 9.946 C 58.033 9.946,57.258 10.217,57.258 11.175 C 57.258 11.470,56.835 11.560,55.444 11.563 C 53.440 11.568,53.067 11.706,52.918 12.500 C 52.834 12.952,52.570 13.051,51.274 13.118 C 49.847 13.193,49.731 13.247,49.731 13.843 C 49.731 14.432,49.607 14.495,48.320 14.569 C 47.010 14.645,46.903 14.703,46.825 15.377 C 46.746 16.060,46.650 16.108,45.212 16.183 C 43.774 16.259,43.678 16.307,43.599 16.989 C 43.521 17.661,43.412 17.721,42.121 17.796 C 40.920 17.865,40.714 17.958,40.642 18.465 C 40.583 18.877,40.341 19.079,39.836 19.137 C 39.276 19.202,39.094 19.385,39.029 19.946 C 38.952 20.618,38.842 20.678,37.551 20.753 C 36.252 20.828,36.150 20.884,36.071 21.573 C 36.000 22.192,35.858 22.312,35.197 22.312 C 34.541 22.312,34.409 22.422,34.409 22.966 C 34.409 23.480,34.250 23.638,33.669 23.705 C 33.089 23.772,32.912 23.949,32.845 24.530 C 32.769 25.194,32.655 25.269,31.722 25.269 C 30.669 25.269,29.839 25.803,29.839 26.479 C 29.839 26.680,29.567 26.883,29.234 26.930 C 28.838 26.986,28.598 27.232,28.540 27.642 C 28.483 28.048,28.181 28.363,27.683 28.537 C 27.208 28.702,26.882 29.028,26.830 29.389 C 26.778 29.757,26.524 30.005,26.143 30.059 C 25.773 30.111,25.477 30.389,25.380 30.775 C 25.289 31.140,24.953 31.473,24.582 31.566 C 24.050 31.699,23.913 31.951,23.765 33.067 C 23.608 34.249,23.511 34.409,22.949 34.409 C 22.420 34.409,22.312 34.546,22.312 35.215 C 22.312 35.932,22.222 36.022,21.505 36.022 C 20.793 36.022,20.699 36.113,20.699 36.810 C 20.699 37.471,20.579 37.613,19.960 37.684 C 19.270 37.763,19.215 37.864,19.139 39.180 C 19.065 40.476,19.004 40.591,18.400 40.591 C 17.851 40.591,17.742 40.723,17.742 41.380 C 17.742 42.040,17.622 42.182,17.003 42.254 C 16.314 42.333,16.258 42.435,16.183 43.733 C 16.108 45.025,16.048 45.134,15.376 45.212 C 14.704 45.290,14.645 45.399,14.570 46.690 C 14.500 47.892,14.408 48.096,13.898 48.169 C 13.378 48.242,13.297 48.440,13.226 49.798 C 13.147 51.313,13.129 51.344,12.352 51.344 C 11.572 51.344,11.559 51.368,11.559 52.793 C 11.559 54.094,11.494 54.259,10.921 54.403 C 10.145 54.598,9.946 55.406,9.946 58.367 C 9.946 60.446,9.934 60.484,9.274 60.484 L 8.602 60.484 8.602 63.575 L 8.602 66.667 7.793 66.667 L 6.985 66.667 7.054 81.788 L 7.124 96.909 7.855 96.993 L 8.587 97.077 8.662 100.756 C 8.735 104.341,8.752 104.438,9.341 104.521 C 9.901 104.601,9.946 104.744,9.946 106.448 C 9.946 108.712,10.098 109.140,10.902 109.140 C 11.481 109.140,11.539 109.266,11.613 110.685 C 11.689 112.143,11.735 112.236,12.422 112.315 C 13.135 112.397,13.152 112.441,13.228 114.466 C 13.301 116.376,13.352 116.539,13.911 116.618 C 14.339 116.679,14.516 116.886,14.516 117.324 C 14.516 118.764,14.854 119.631,15.476 119.787 C 15.898 119.893,16.125 120.172,16.181 120.657 C 16.244 121.207,16.430 121.390,16.989 121.455 C 17.661 121.532,17.721 121.642,17.796 122.933 C 17.865 124.133,17.958 124.340,18.465 124.412 C 18.877 124.470,19.079 124.712,19.137 125.218 C 19.202 125.781,19.384 125.960,19.960 126.026 C 20.645 126.105,20.699 126.200,20.699 127.326 C 20.699 128.425,20.775 128.570,21.493 128.841 C 22.043 129.049,22.311 129.351,22.366 129.826 C 22.421 130.294,22.632 130.537,23.035 130.594 C 23.401 130.647,23.654 130.900,23.707 131.267 C 23.766 131.682,24.007 131.880,24.530 131.940 C 25.149 132.011,25.269 132.153,25.269 132.814 C 25.269 133.511,25.362 133.602,26.075 133.602 C 26.792 133.602,26.882 133.692,26.882 134.409 C 26.882 135.084,26.988 135.215,27.536 135.215 C 28.050 135.215,28.208 135.374,28.275 135.954 C 28.341 136.530,28.520 136.712,29.083 136.777 C 29.589 136.835,29.831 137.037,29.889 137.449 C 29.949 137.865,30.190 138.063,30.712 138.123 C 31.331 138.194,31.452 138.336,31.452 138.996 C 31.452 139.689,31.547 139.785,32.239 139.785 C 32.852 139.785,33.046 139.920,33.113 140.390 C 33.184 140.890,33.444 141.038,34.610 141.245 C 35.835 141.463,36.022 141.578,36.022 142.119 C 36.022 142.632,36.164 142.742,36.828 142.742 C 37.545 142.742,37.634 142.832,37.634 143.548 C 37.634 144.345,37.651 144.355,39.095 144.355 C 40.489 144.355,40.560 144.389,40.641 145.094 C 40.707 145.670,40.885 145.852,41.448 145.917 C 41.954 145.975,42.196 146.177,42.255 146.589 C 42.327 147.095,42.533 147.189,43.733 147.258 C 45.025 147.333,45.134 147.392,45.212 148.065 C 45.290 148.738,45.398 148.796,46.707 148.872 C 47.687 148.928,48.118 149.066,48.118 149.323 C 48.118 150.039,48.946 150.538,50.135 150.538 C 51.145 150.538,51.319 150.621,51.393 151.142 C 51.473 151.706,51.629 151.753,53.696 151.825 L 55.914 151.903 55.914 152.699 L 55.914 153.495 58.199 153.495 C 60.430 153.495,60.484 153.510,60.484 154.138 C 60.484 154.998,60.878 155.108,63.982 155.108 C 66.523 155.108,66.633 155.132,66.715 155.712 L 66.801 156.317 92.675 156.386 L 118.548 156.454 118.548 209.948 L 118.548 263.441 132.930 263.441 L 147.312 263.441 147.312 209.946 L 147.312 156.452 173.253 156.452 L 199.194 156.452 199.194 142.392 C 199.194 131.816,199.114 128.253,198.871 128.011 C 198.625 127.764,192.497 127.688,172.930 127.688 L 147.312 127.688 147.312 120.717 L 147.312 113.745 148.051 113.660 L 148.790 113.575 148.864 109.090 C 148.936 104.684,148.948 104.604,149.536 104.521 C 150.109 104.439,150.138 104.306,150.210 101.428 L 150.286 98.421 151.017 98.337 C 151.738 98.254,151.748 98.224,151.825 96.052 C 151.902 93.881,151.913 93.850,152.632 93.767 C 153.304 93.689,153.366 93.578,153.439 92.330 C 153.504 91.235,153.632 90.928,154.111 90.717 C 154.579 90.512,154.721 90.194,154.785 89.211 C 154.859 88.071,154.933 87.952,155.659 87.806 C 156.421 87.654,156.452 87.590,156.452 86.180 C 156.452 84.780,156.485 84.709,157.191 84.628 C 157.767 84.562,157.949 84.383,158.014 83.820 C 158.072 83.314,158.274 83.073,158.686 83.014 C 159.193 82.942,159.285 82.736,159.355 81.519 C 159.434 80.154,159.463 80.108,160.229 80.108 C 160.889 80.108,161.022 79.998,161.022 79.453 C 161.022 78.940,161.180 78.781,161.761 78.714 C 162.341 78.647,162.518 78.470,162.585 77.890 C 162.652 77.307,162.810 77.151,163.331 77.151 C 163.850 77.151,164.026 76.978,164.153 76.344 C 164.278 75.720,164.459 75.538,164.953 75.538 C 165.450 75.538,165.591 75.393,165.591 74.883 C 165.591 74.370,165.750 74.211,166.331 74.144 C 166.911 74.077,167.088 73.901,167.155 73.320 C 167.233 72.643,167.336 72.581,168.378 72.581 C 169.600 72.581,170.161 72.225,170.161 71.452 C 170.161 71.093,170.370 70.968,170.968 70.968 C 171.649 70.968,171.774 70.863,171.774 70.296 C 171.774 69.693,171.883 69.624,172.827 69.624 C 174.287 69.624,174.731 69.400,174.731 68.667 C 174.731 68.089,174.858 68.031,176.277 67.957 C 177.740 67.881,177.827 67.837,177.908 67.137 C 177.992 66.400,177.998 66.398,180.132 66.398 L 182.272 66.398 182.433 65.591 L 182.594 64.785 193.313 64.785 C 203.456 64.785,204.032 64.811,204.032 65.269 C 204.032 66.203,204.595 66.398,207.294 66.398 L 209.911 66.398 209.996 67.137 C 210.076 67.837,210.163 67.881,211.626 67.957 C 213.045 68.031,213.172 68.089,213.172 68.667 C 213.172 69.398,213.617 69.624,215.057 69.624 C 215.925 69.624,216.105 69.721,216.178 70.228 C 216.252 70.754,216.446 70.844,217.658 70.914 C 218.950 70.989,219.059 71.048,219.137 71.720 C 219.201 72.280,219.384 72.465,219.934 72.529 C 220.428 72.586,220.698 72.811,220.811 73.259 C 220.947 73.801,221.193 73.936,222.315 74.085 C 223.497 74.242,223.656 74.338,223.656 74.900 C 223.656 75.429,223.793 75.538,224.462 75.538 C 225.179 75.538,225.269 75.627,225.269 76.344 C 225.269 77.061,225.358 77.151,226.075 77.151 C 226.792 77.151,226.882 77.240,226.882 77.957 C 226.882 78.638,226.986 78.763,227.554 78.763 C 228.091 78.763,228.226 78.898,228.226 79.435 C 228.226 80.003,228.351 80.108,229.032 80.108 C 229.801 80.108,229.839 80.161,229.843 81.250 C 229.848 82.582,230.041 82.965,230.780 83.103 C 231.133 83.169,231.346 83.455,231.402 83.940 C 231.469 84.519,231.628 84.677,232.142 84.677 C 232.736 84.677,232.796 84.786,232.796 85.868 C 232.796 87.084,233.290 87.903,234.025 87.903 C 234.302 87.903,234.409 88.247,234.409 89.136 C 234.409 90.255,234.482 90.397,235.203 90.669 C 235.920 90.940,236.005 91.100,236.077 92.326 C 236.150 93.583,236.210 93.689,236.895 93.768 L 237.634 93.853 237.634 96.120 C 237.634 98.359,237.643 98.387,238.306 98.387 C 238.978 98.387,238.978 98.389,238.978 101.053 C 238.978 104.176,239.087 104.570,239.948 104.570 L 240.591 104.570 240.591 113.844 L 240.591 123.118 239.948 123.118 C 239.088 123.118,238.978 123.512,238.978 126.616 C 238.978 129.157,238.954 129.267,238.374 129.350 C 237.810 129.430,237.763 129.586,237.691 131.636 C 237.614 133.807,237.603 133.838,236.885 133.921 C 236.212 133.999,236.150 134.110,236.077 135.362 C 236.005 136.588,235.920 136.748,235.203 137.019 C 234.482 137.291,234.409 137.433,234.409 138.552 C 234.409 139.560,234.320 139.785,233.925 139.785 C 233.129 139.785,232.796 140.356,232.796 141.720 C 232.796 142.918,232.747 143.011,232.124 143.011 C 231.591 143.011,231.452 143.146,231.452 143.665 C 231.452 144.179,231.293 144.337,230.712 144.404 C 230.132 144.471,229.955 144.648,229.888 145.228 C 229.821 145.811,229.663 145.968,229.142 145.968 C 228.623 145.968,228.447 146.141,228.320 146.774 C 228.195 147.399,228.014 147.581,227.520 147.581 C 227.027 147.581,226.882 147.726,226.882 148.219 C 226.882 148.713,226.700 148.894,226.075 149.019 C 225.442 149.146,225.269 149.322,225.269 149.841 C 225.269 150.362,225.113 150.520,224.530 150.587 C 223.953 150.653,223.772 150.832,223.707 151.397 C 223.631 152.056,223.508 152.130,222.363 152.204 C 221.365 152.268,221.048 152.409,220.842 152.878 C 220.692 153.220,220.295 153.504,219.901 153.550 C 219.383 153.610,219.200 153.805,219.135 154.368 C 219.054 155.074,218.983 155.108,217.590 155.108 C 216.146 155.108,216.129 155.117,216.129 155.914 C 216.129 156.712,216.114 156.720,214.651 156.720 C 213.259 156.720,213.172 156.759,213.172 157.382 C 213.172 158.024,213.110 158.045,210.954 158.121 C 208.757 158.198,208.736 158.206,208.651 158.938 L 208.566 159.677 189.496 159.677 L 170.425 159.677 170.495 174.126 L 170.565 188.575 264.919 188.575 L 359.274 188.575 359.359 187.843 L 359.443 187.111 363.256 187.037 L 367.070 186.962 367.154 186.234 C 367.237 185.515,367.268 185.504,369.439 185.427 C 371.474 185.355,371.646 185.305,371.724 184.758 C 371.796 184.248,372.000 184.156,373.202 184.086 C 374.500 184.011,374.603 183.954,374.682 183.266 C 374.763 182.560,374.833 182.527,376.234 182.527 C 377.644 182.527,377.708 182.496,377.860 181.734 C 378.005 181.009,378.125 180.934,379.265 180.860 C 380.256 180.796,380.565 180.656,380.776 180.175 C 380.922 179.842,381.231 179.570,381.462 179.570 C 382.023 179.570,382.527 179.036,382.527 178.441 C 382.527 178.104,382.731 177.957,383.199 177.957 C 383.766 177.957,383.871 177.832,383.871 177.151 C 383.871 176.434,383.961 176.344,384.677 176.344 C 385.358 176.344,385.484 176.240,385.484 175.672 C 385.484 175.204,385.631 175.000,385.968 175.000 C 386.563 175.000,387.097 174.497,387.097 173.935 C 387.097 173.704,387.369 173.395,387.702 173.249 C 388.184 173.037,388.323 172.730,388.388 171.723 C 388.462 170.578,388.535 170.455,389.194 170.379 C 389.795 170.310,389.934 170.145,390.004 169.422 C 390.072 168.713,390.205 168.548,390.709 168.548 C 391.418 168.548,391.667 167.772,391.667 165.558 C 391.667 164.339,391.714 164.247,392.339 164.247 C 393.002 164.247,393.011 164.219,393.011 161.980 L 393.011 159.713 393.750 159.628 L 394.489 159.543 394.563 155.040 C 394.630 150.934,394.679 150.538,395.114 150.538 C 396.694 150.538,396.835 141.895,395.261 141.500 C 394.629 141.341,394.624 141.311,394.624 137.605 L 394.624 133.871 393.817 133.871 L 393.011 133.871 393.011 131.591 C 393.011 129.384,392.989 129.306,392.339 129.143 C 391.801 129.008,391.666 128.805,391.663 128.129 C 391.657 126.642,391.390 126.075,390.694 126.075 C 390.162 126.075,390.054 125.939,390.054 125.269 C 390.054 124.555,389.963 124.462,389.262 124.462 C 388.508 124.462,388.466 124.401,388.388 123.185 C 388.323 122.163,388.186 121.856,387.702 121.643 C 387.369 121.497,387.097 121.189,387.097 120.958 C 387.097 120.396,386.563 119.892,385.968 119.892 C 385.631 119.892,385.484 119.688,385.484 119.220 C 385.484 118.653,385.358 118.548,384.677 118.548 C 383.961 118.548,383.871 118.459,383.871 117.742 C 383.871 117.025,383.781 116.935,383.065 116.935 C 382.390 116.935,382.258 116.829,382.258 116.283 C 382.258 115.693,382.115 115.612,380.780 115.445 C 379.452 115.280,379.301 115.195,379.301 114.620 C 379.301 114.120,379.157 113.978,378.647 113.978 C 378.133 113.978,377.974 113.820,377.908 113.239 C 377.827 112.539,377.740 112.496,376.277 112.419 C 374.763 112.340,374.731 112.323,374.731 111.546 C 374.731 110.848,374.637 110.753,373.943 110.753 C 373.331 110.753,373.137 110.618,373.070 110.148 C 372.995 109.622,372.802 109.532,371.589 109.462 C 370.297 109.388,370.188 109.328,370.111 108.656 C 370.033 107.984,369.923 107.924,368.641 107.850 C 367.448 107.781,367.234 107.683,367.099 107.145 C 366.923 106.441,366.075 106.183,363.945 106.183 C 362.726 106.183,362.634 106.136,362.634 105.511 C 362.634 104.869,362.563 104.839,361.022 104.839 C 359.648 104.839,359.409 104.767,359.409 104.355 C 359.409 103.477,358.828 103.226,356.801 103.226 C 354.910 103.226,354.839 103.202,354.839 102.583 C 354.839 101.763,354.419 101.613,352.129 101.613 C 350.324 101.613,350.269 101.593,350.269 100.941 L 350.269 100.269 347.330 100.269 L 344.391 100.269 344.305 99.530 C 344.221 98.797,344.200 98.790,342.003 98.712 C 340.328 98.653,339.785 98.543,339.785 98.261 C 339.785 97.316,339.001 97.043,336.289 97.043 L 333.638 97.043 333.553 96.304 C 333.469 95.572,333.446 95.564,331.267 95.487 C 329.230 95.415,329.061 95.365,328.982 94.815 C 328.904 94.264,328.736 94.215,326.680 94.142 C 325.005 94.083,324.462 93.973,324.462 93.691 C 324.462 92.820,323.653 92.473,321.621 92.473 C 319.698 92.473,319.624 92.449,319.624 91.835 C 319.624 91.110,318.866 90.860,316.662 90.860 C 315.520 90.860,315.363 90.787,315.212 90.188 C 315.058 89.575,314.916 89.516,313.588 89.516 C 312.200 89.516,312.129 89.482,312.047 88.777 C 311.968 88.089,311.866 88.032,310.568 87.957 C 309.276 87.882,309.167 87.823,309.089 87.151 C 309.024 86.584,308.843 86.406,308.266 86.340 C 307.692 86.274,307.527 86.113,307.527 85.618 C 307.527 85.124,307.362 84.963,306.788 84.897 C 306.259 84.836,306.024 84.640,305.963 84.207 C 305.910 83.835,305.632 83.542,305.239 83.443 C 304.800 83.333,304.575 83.059,304.518 82.569 C 304.454 82.015,304.270 81.836,303.696 81.770 L 302.957 81.685 302.957 77.957 L 302.957 74.229 303.696 74.144 C 304.396 74.064,304.440 73.977,304.516 72.513 C 304.595 70.999,304.613 70.968,305.390 70.968 C 306.052 70.968,306.183 70.859,306.183 70.310 C 306.183 69.706,306.298 69.645,307.594 69.570 C 308.910 69.495,309.011 69.439,309.090 68.750 L 309.175 68.011 350.668 68.011 C 373.489 68.011,392.352 67.937,392.586 67.848 C 392.966 67.702,393.011 66.171,393.011 53.331 L 393.011 38.978 350.202 38.982 C 304.938 38.986,306.183 38.959,306.183 39.942 C 306.183 40.563,306.132 40.575,303.159 40.650 L 300.134 40.726 300.050 41.454 C 299.967 42.173,299.937 42.184,297.765 42.261 C 295.715 42.333,295.559 42.380,295.479 42.944 C 295.405 43.460,295.229 43.549,294.269 43.551 C 292.000 43.557,291.129 43.827,291.129 44.524 C 291.129 45.053,290.992 45.161,290.323 45.161 C 289.609 45.161,289.516 45.252,289.516 45.954 C 289.516 46.731,289.485 46.749,287.970 46.828 C 286.601 46.899,286.415 46.978,286.339 47.513 C 286.277 47.951,286.072 48.118,285.600 48.118 C 285.053 48.118,284.946 48.250,284.946 48.925 C 284.946 49.642,284.857 49.731,284.140 49.731 C 283.423 49.731,283.333 49.821,283.333 50.538 C 283.333 51.254,283.244 51.344,282.527 51.344 C 281.846 51.344,281.720 51.449,281.720 52.016 C 281.720 52.554,281.586 52.688,281.048 52.688 C 280.481 52.688,280.376 52.814,280.376 53.495 C 280.376 54.211,280.287 54.301,279.570 54.301 C 278.853 54.301,278.763 54.391,278.763 55.108 C 278.763 55.779,278.656 55.914,278.120 55.914 C 277.376 55.914,277.151 56.353,277.151 57.800 C 277.151 58.730,277.075 58.844,276.411 58.920 C 275.723 58.999,275.666 59.102,275.591 60.400 C 275.522 61.602,275.429 61.806,274.919 61.878 C 274.403 61.952,274.318 62.151,274.249 63.454 C 274.176 64.829,274.108 64.968,273.375 65.245 L 272.581 65.545 272.581 69.838 C 272.581 73.896,272.551 74.138,272.046 74.271 C 271.182 74.496,270.968 75.604,270.968 79.834 C 270.968 84.335,271.036 84.677,271.937 84.677 L 272.581 84.677 272.581 88.420 L 272.581 92.162 273.387 92.339 C 274.162 92.509,274.194 92.573,274.194 93.973 C 274.194 95.348,274.231 95.430,274.866 95.430 C 275.501 95.430,275.538 95.511,275.538 96.909 C 275.538 98.372,275.546 98.387,276.344 98.387 C 277.119 98.387,277.151 98.434,277.151 99.578 C 277.151 100.783,277.644 101.613,278.362 101.613 C 278.563 101.613,278.766 101.946,278.813 102.352 C 278.880 102.933,279.056 103.110,279.637 103.176 C 280.218 103.243,280.376 103.402,280.376 103.916 C 280.376 104.430,280.517 104.570,281.031 104.570 C 281.544 104.570,281.703 104.729,281.770 105.309 C 281.836 105.885,282.015 106.067,282.578 106.132 C 283.137 106.196,283.320 106.380,283.384 106.938 C 283.449 107.502,283.631 107.680,284.207 107.746 C 284.781 107.812,284.946 107.973,284.946 108.468 C 284.946 108.962,285.111 109.123,285.683 109.189 C 286.168 109.245,286.455 109.458,286.521 109.812 C 286.659 110.550,287.041 110.744,288.374 110.749 C 289.463 110.752,289.516 110.790,289.516 111.559 C 289.516 112.272,289.608 112.366,290.304 112.366 C 290.916 112.366,291.111 112.500,291.178 112.970 C 291.252 113.496,291.446 113.586,292.658 113.656 C 293.950 113.731,294.059 113.790,294.137 114.462 C 294.214 115.136,294.322 115.194,295.632 115.269 C 296.909 115.343,297.043 115.410,297.043 115.980 C 297.043 116.708,297.488 116.935,298.918 116.935 C 299.786 116.935,299.967 117.038,300.110 117.608 C 300.273 118.254,300.361 118.280,302.407 118.280 C 304.528 118.280,304.534 118.282,304.619 119.019 C 304.700 119.719,304.787 119.762,306.250 119.839 C 307.669 119.913,307.796 119.971,307.796 120.549 C 307.796 121.355,308.223 121.505,310.506 121.505 C 312.310 121.505,312.366 121.525,312.366 122.177 C 312.366 122.841,312.394 122.849,314.633 122.849 L 316.900 122.849 316.985 123.589 L 317.070 124.328 320.077 124.404 L 323.084 124.480 323.168 125.210 C 323.252 125.932,323.280 125.942,325.470 126.019 C 327.626 126.095,327.688 126.116,327.688 126.758 C 327.688 127.409,327.725 127.419,329.973 127.419 C 331.994 127.419,332.258 127.475,332.258 127.903 C 332.258 128.839,332.820 129.032,335.538 129.032 C 337.895 129.032,338.172 129.083,338.172 129.516 C 338.172 130.392,338.753 130.645,340.761 130.645 C 342.572 130.645,342.710 130.686,342.790 131.250 C 342.870 131.813,343.027 131.860,345.077 131.933 C 347.248 132.009,347.279 132.020,347.362 132.739 C 347.441 133.425,347.536 133.472,348.975 133.548 C 350.316 133.618,350.514 133.701,350.588 134.220 C 350.657 134.703,350.927 134.857,352.064 135.059 C 353.052 135.235,353.493 135.448,353.584 135.795 C 353.721 136.321,354.776 136.828,355.733 136.828 C 356.088 136.828,356.430 137.070,356.589 137.433 C 356.808 137.931,357.103 138.052,358.266 138.119 C 359.631 138.197,359.677 138.226,359.677 138.993 C 359.677 139.694,359.770 139.785,360.484 139.785 C 361.201 139.785,361.290 139.875,361.290 140.591 C 361.290 141.272,361.395 141.398,361.962 141.398 C 362.541 141.398,362.635 141.520,362.638 142.272 C 362.644 143.789,362.908 144.355,363.607 144.355 L 364.247 144.355 364.247 148.235 L 364.247 152.115 363.508 152.200 C 362.819 152.279,362.763 152.380,362.688 153.696 C 362.613 154.992,362.553 155.108,361.948 155.108 C 361.399 155.108,361.290 155.238,361.290 155.900 C 361.290 156.666,361.244 156.695,359.879 156.774 C 358.650 156.844,358.457 156.933,358.382 157.460 C 358.308 157.981,358.135 158.065,357.127 158.065 C 355.544 158.065,355.108 158.274,355.108 159.034 L 355.108 159.677 306.116 159.637 C 279.170 159.615,257.449 159.547,257.846 159.487 C 258.499 159.387,258.585 159.237,258.750 157.914 C 258.914 156.603,258.999 156.452,259.574 156.452 C 260.172 156.452,260.215 156.352,260.215 154.973 C 260.215 153.510,260.223 153.495,261.022 153.495 C 261.734 153.495,261.828 153.403,261.828 152.707 C 261.828 152.095,261.963 151.900,262.433 151.833 C 262.930 151.763,263.081 151.504,263.281 150.382 C 263.456 149.396,263.680 148.948,264.087 148.769 C 264.578 148.553,264.661 148.254,264.729 146.438 L 264.808 144.355 265.603 144.355 C 266.395 144.355,266.398 144.350,266.398 142.742 C 266.398 141.224,266.436 141.129,267.035 141.129 C 267.789 141.129,268.003 140.263,268.008 137.193 C 268.011 135.376,268.046 135.264,268.676 135.106 L 269.342 134.939 269.416 130.440 C 269.488 126.005,269.498 125.940,270.094 125.855 C 270.968 125.731,270.991 125.455,270.909 116.263 L 270.833 107.930 270.100 107.846 L 269.366 107.761 269.293 102.469 C 269.221 97.234,269.214 97.177,268.624 97.093 C 268.054 97.012,268.025 96.875,267.952 94.001 L 267.876 90.995 267.137 90.910 L 266.398 90.825 266.398 88.208 C 266.398 85.519,266.202 84.946,265.282 84.946 C 264.898 84.946,264.797 84.663,264.731 83.401 C 264.660 82.031,264.582 81.845,264.046 81.769 C 263.529 81.696,263.440 81.519,263.438 80.559 C 263.432 78.290,263.162 77.419,262.465 77.419 C 261.883 77.419,261.828 77.307,261.828 76.129 C 261.828 74.765,261.495 74.194,260.699 74.194 C 260.341 74.194,260.215 73.984,260.215 73.387 C 260.215 72.711,260.109 72.581,259.557 72.581 C 258.953 72.581,258.892 72.465,258.818 71.169 C 258.742 69.853,258.687 69.752,257.997 69.673 C 257.321 69.595,257.258 69.492,257.258 68.450 C 257.258 67.228,256.903 66.667,256.129 66.667 C 255.771 66.667,255.645 66.458,255.645 65.860 C 255.645 65.185,255.539 65.054,254.991 65.054 C 254.477 65.054,254.319 64.895,254.252 64.315 C 254.185 63.734,254.008 63.557,253.427 63.490 C 252.751 63.412,252.688 63.309,252.688 62.267 C 252.688 61.045,252.333 60.484,251.559 60.484 C 251.201 60.484,251.075 60.275,251.075 59.677 C 251.075 58.996,250.971 58.871,250.403 58.871 C 249.935 58.871,249.731 58.724,249.731 58.387 C 249.731 57.768,249.221 57.258,248.602 57.258 C 248.265 57.258,248.118 57.054,248.118 56.586 C 248.118 56.019,247.993 55.914,247.312 55.914 C 246.595 55.914,246.505 55.824,246.505 55.108 C 246.505 54.427,246.401 54.301,245.833 54.301 C 245.365 54.301,245.161 54.154,245.161 53.817 C 245.161 53.222,244.658 52.688,244.096 52.688 C 243.865 52.688,243.556 52.416,243.411 52.083 C 243.198 51.599,242.891 51.462,241.868 51.397 C 240.653 51.319,240.591 51.277,240.591 50.523 C 240.591 49.826,240.497 49.731,239.803 49.731 C 239.142 49.731,239.000 49.611,238.929 48.992 C 238.864 48.429,238.682 48.234,238.163 48.173 C 237.770 48.127,237.373 47.844,237.222 47.501 C 237.017 47.032,236.700 46.892,235.702 46.827 C 234.557 46.754,234.434 46.680,234.358 46.021 C 234.279 45.338,234.184 45.291,232.728 45.215 C 231.214 45.136,231.183 45.118,231.183 44.341 C 231.183 43.559,231.162 43.548,229.704 43.548 C 228.306 43.548,228.226 43.512,228.226 42.876 C 228.226 42.243,228.143 42.204,226.781 42.204 C 225.391 42.204,225.330 42.174,225.175 41.398 L 225.013 40.591 222.874 40.591 C 220.740 40.591,220.734 40.590,220.650 39.852 C 220.565 39.120,220.543 39.112,218.364 39.035 C 216.326 38.963,216.157 38.913,216.079 38.363 C 215.998 37.796,215.858 37.765,212.987 37.693 L 209.980 37.617 209.896 36.887 L 209.812 36.156 193.884 36.087 L 177.957 36.017 177.957 36.826 L 177.957 37.634 174.194 37.634 L 170.430 37.634 170.430 38.306 C 170.430 38.959,170.375 38.978,168.570 38.978 C 166.287 38.978,165.860 39.129,165.860 39.935 C 165.860 40.513,165.734 40.571,164.315 40.645 C 162.857 40.721,162.764 40.768,162.685 41.454 C 162.603 42.167,162.559 42.184,160.534 42.261 C 158.624 42.333,158.461 42.384,158.382 42.944 C 158.321 43.371,158.114 43.548,157.676 43.548 C 156.221 43.548,155.370 43.885,155.209 44.524 C 155.087 45.011,154.866 45.161,154.272 45.161 C 153.587 45.161,153.495 45.258,153.495 45.968 C 153.495 46.766,153.480 46.774,152.016 46.774 C 150.629 46.774,150.538 46.815,150.538 47.428 C 150.538 47.942,150.379 48.101,149.798 48.168 C 149.218 48.234,149.041 48.411,148.974 48.992 C 148.896 49.669,148.793 49.731,147.751 49.731 C 146.529 49.731,145.968 50.087,145.968 50.860 C 145.968 51.219,145.759 51.344,145.161 51.344 C 144.486 51.344,144.355 51.451,144.355 51.998 C 144.355 52.512,144.196 52.671,143.616 52.738 C 143.035 52.804,142.858 52.981,142.791 53.562 C 142.724 54.142,142.566 54.301,142.052 54.301 C 141.504 54.301,141.398 54.432,141.398 55.108 C 141.398 55.824,141.308 55.914,140.591 55.914 C 139.916 55.914,139.785 56.021,139.785 56.568 C 139.785 57.082,139.626 57.241,139.046 57.307 C 138.465 57.374,138.288 57.551,138.221 58.132 C 138.155 58.712,137.996 58.871,137.482 58.871 C 136.938 58.871,136.828 59.003,136.828 59.660 C 136.828 60.320,136.708 60.462,136.089 60.533 C 135.513 60.599,135.331 60.778,135.266 61.341 C 135.208 61.847,135.006 62.089,134.594 62.147 C 134.113 62.216,133.959 62.490,133.755 63.642 C 133.537 64.867,133.422 65.054,132.881 65.054 C 132.368 65.054,132.258 65.196,132.258 65.860 C 132.258 66.458,132.133 66.667,131.774 66.667 C 131.001 66.667,130.645 67.228,130.645 68.450 C 130.645 69.492,130.583 69.595,129.906 69.673 C 129.216 69.752,129.161 69.853,129.085 71.169 C 129.011 72.465,128.950 72.581,128.346 72.581 C 127.794 72.581,127.688 72.711,127.688 73.387 C 127.688 73.984,127.563 74.194,127.204 74.194 C 126.329 74.194,126.075 74.775,126.075 76.783 C 126.075 78.705,126.067 78.729,125.336 78.813 C 124.649 78.892,124.591 78.995,124.516 80.283 C 124.446 81.498,124.355 81.689,123.777 81.834 C 123.148 81.992,123.118 82.094,123.118 84.111 L 123.118 86.223 122.312 86.384 L 121.505 86.546 121.505 88.837 C 121.505 91.069,121.489 91.129,120.869 91.129 C 120.074 91.129,119.900 91.981,119.895 95.882 C 119.893 98.514,119.869 98.622,119.288 98.704 L 118.683 98.790 118.613 113.239 L 118.544 127.688 97.100 127.688 L 75.656 127.688 75.351 126.882 L 75.047 126.075 72.219 126.075 L 69.391 126.075 69.305 125.336 C 69.221 124.604,69.200 124.596,67.003 124.519 C 64.847 124.443,64.785 124.422,64.785 123.779 C 64.785 123.157,64.698 123.118,63.306 123.118 C 61.843 123.118,61.828 123.110,61.828 122.312 C 61.828 121.599,61.736 121.505,61.040 121.505 C 60.428 121.505,60.233 121.371,60.167 120.901 C 60.096 120.401,59.836 120.252,58.669 120.045 C 57.445 119.828,57.258 119.712,57.258 119.171 C 57.258 118.658,57.116 118.548,56.452 118.548 C 55.854 118.548,55.645 118.423,55.645 118.065 C 55.645 117.288,55.082 116.935,53.844 116.935 C 52.739 116.935,52.688 116.900,52.688 116.129 C 52.688 115.412,52.599 115.323,51.882 115.323 C 51.201 115.323,51.075 115.218,51.075 114.651 C 51.075 114.113,50.941 113.978,50.403 113.978 C 49.836 113.978,49.731 113.853,49.731 113.172 C 49.731 112.455,49.642 112.366,48.925 112.366 C 48.154 112.366,48.118 112.315,48.118 111.210 C 48.118 109.980,47.766 109.409,47.007 109.409 C 46.699 109.409,46.512 109.159,46.456 108.669 C 46.396 108.147,46.198 107.906,45.782 107.846 C 45.370 107.788,45.169 107.546,45.110 107.040 C 45.045 106.477,44.864 106.298,44.288 106.232 C 43.582 106.151,43.548 106.080,43.548 104.686 C 43.548 103.243,43.539 103.226,42.742 103.226 C 41.944 103.226,41.935 103.211,41.935 101.747 C 41.935 100.349,41.899 100.269,41.263 100.269 C 40.604 100.269,40.591 100.229,40.591 98.172 C 40.591 96.013,40.353 95.430,39.471 95.430 C 39.052 95.430,38.988 95.095,38.920 92.540 L 38.844 89.651 38.105 89.565 L 37.366 89.480 37.366 82.509 L 37.366 75.538 38.009 75.538 C 38.892 75.538,38.978 75.168,38.978 71.383 L 38.978 68.078 39.785 67.917 C 40.559 67.762,40.591 67.698,40.591 66.334 C 40.591 65.118,40.679 64.874,41.196 64.647 C 41.675 64.437,41.818 64.127,41.881 63.159 C 41.951 62.083,42.056 61.900,42.754 61.637 C 43.489 61.360,43.548 61.235,43.548 59.988 C 43.548 58.794,43.618 58.630,44.153 58.554 C 44.653 58.483,44.802 58.223,45.009 57.056 C 45.226 55.832,45.342 55.645,45.882 55.645 C 46.359 55.645,46.505 55.495,46.505 55.007 C 46.505 54.512,46.687 54.332,47.312 54.207 C 47.941 54.081,48.118 53.903,48.118 53.396 C 48.118 52.927,48.305 52.699,48.790 52.578 C 49.231 52.467,49.462 52.221,49.462 51.863 C 49.462 51.500,49.728 51.224,50.253 51.041 C 50.747 50.868,51.074 50.546,51.126 50.181 C 51.179 49.813,51.433 49.565,51.814 49.511 C 52.191 49.457,52.480 49.179,52.582 48.772 C 52.700 48.305,52.932 48.118,53.396 48.118 C 53.903 48.118,54.081 47.941,54.207 47.312 C 54.332 46.687,54.512 46.505,55.007 46.505 C 55.500 46.505,55.645 46.360,55.645 45.864 C 55.645 45.289,55.796 45.204,57.124 45.039 C 58.459 44.872,58.602 44.791,58.602 44.201 C 58.602 43.655,58.734 43.548,59.409 43.548 C 60.122 43.548,60.215 43.457,60.215 42.755 C 60.215 41.978,60.247 41.961,61.761 41.882 C 63.119 41.811,63.317 41.729,63.391 41.210 C 63.463 40.700,63.667 40.607,64.869 40.538 C 66.167 40.463,66.269 40.406,66.349 39.718 L 66.434 38.978 68.701 38.978 L 70.968 38.978 70.968 38.181 L 70.968 37.383 73.992 37.307 C 76.894 37.234,77.020 37.207,77.102 36.628 L 77.187 36.026 93.096 35.956 L 109.005 35.887 109.075 21.438 L 109.144 6.989 90.235 6.989 C 79.835 6.989,71.246 7.070,71.147 7.168 M178.136 198.029 C 178.038 198.127,177.957 198.490,177.957 198.835 C 177.957 199.416,177.848 199.462,176.478 199.462 C 175.015 199.462,175.000 199.471,175.000 200.269 C 175.000 200.986,174.910 201.075,174.194 201.075 C 173.518 201.075,173.387 201.182,173.387 201.729 C 173.387 202.243,173.228 202.402,172.648 202.469 C 172.085 202.533,171.890 202.716,171.829 203.235 C 171.783 203.628,171.500 204.025,171.157 204.175 C 170.631 204.406,170.556 204.668,170.486 206.502 C 170.410 208.527,170.393 208.570,169.680 208.653 L 168.952 208.737 168.874 212.500 C 168.784 216.884,168.869 217.405,169.691 217.522 C 170.247 217.601,170.307 217.781,170.430 219.758 C 170.553 221.717,170.617 221.916,171.153 221.992 C 171.565 222.051,171.767 222.293,171.825 222.799 C 171.890 223.357,172.073 223.540,172.632 223.605 C 173.190 223.670,173.373 223.853,173.438 224.411 C 173.503 224.970,173.686 225.153,174.244 225.218 C 174.745 225.276,174.993 225.479,175.051 225.879 C 175.151 226.572,175.902 226.818,178.024 226.855 C 179.487 226.880,179.570 226.918,179.570 227.554 L 179.570 228.226 186.290 228.226 L 193.011 228.226 193.011 227.554 C 193.011 226.985,193.136 226.882,193.826 226.882 L 194.641 226.882 194.565 223.858 L 194.489 220.833 193.025 220.750 C 191.031 220.637,190.364 220.845,190.163 221.644 C 189.912 222.644,183.964 222.703,183.822 221.707 C 183.752 221.210,183.493 221.059,182.371 220.859 C 181.386 220.684,180.937 220.459,180.758 220.053 C 180.622 219.743,180.246 219.452,179.922 219.406 C 179.556 219.353,179.303 219.100,179.250 218.733 C 179.204 218.410,178.913 218.034,178.603 217.898 C 178.197 217.719,177.972 217.270,177.797 216.285 C 177.597 215.163,177.446 214.904,176.949 214.833 C 175.973 214.695,176.011 209.946,176.987 209.946 C 177.733 209.946,177.957 209.507,177.957 208.043 C 177.957 207.098,178.027 206.989,178.629 206.989 C 179.197 206.989,179.301 206.864,179.301 206.183 C 179.301 205.466,179.391 205.376,180.108 205.376 C 180.789 205.376,180.914 205.272,180.914 204.704 C 180.914 204.033,180.915 204.032,183.583 204.032 C 185.465 204.032,186.359 203.925,186.615 203.669 C 186.919 203.365,187.032 203.365,187.317 203.669 C 187.567 203.938,188.562 204.032,191.140 204.032 L 194.624 204.032 194.624 200.941 L 194.624 197.849 186.470 197.849 C 181.985 197.849,178.235 197.930,178.136 198.029 M246.953 199.642 C 246.855 199.740,246.774 200.103,246.774 200.448 C 246.774 200.966,246.633 201.075,245.968 201.075 L 245.161 201.075 245.161 203.360 L 245.161 205.645 243.683 205.645 L 242.204 205.645 242.204 208.602 L 242.204 211.559 243.683 211.559 L 245.161 211.559 245.161 218.414 L 245.161 225.269 245.968 225.269 C 246.685 225.269,246.774 225.358,246.774 226.075 C 246.774 226.750,246.881 226.882,247.428 226.882 C 247.900 226.882,248.105 227.049,248.167 227.487 C 248.251 228.083,248.316 228.092,252.755 228.165 L 257.258 228.239 257.258 225.275 L 257.258 222.312 254.973 222.312 L 252.688 222.312 252.688 221.156 C 252.688 219.918,252.335 219.355,251.559 219.355 C 251.115 219.355,251.075 219.032,251.075 215.466 L 251.075 211.577 254.099 211.501 L 257.124 211.425 257.200 208.535 L 257.276 205.645 254.176 205.645 L 251.075 205.645 251.075 202.554 L 251.075 199.462 249.104 199.462 C 248.020 199.462,247.052 199.543,246.953 199.642 M199.642 205.824 C 199.543 205.923,199.462 206.210,199.462 206.463 C 199.462 206.758,199.174 206.980,198.656 207.083 C 198.015 207.211,197.849 207.384,197.849 207.923 C 197.849 208.460,197.715 208.602,197.206 208.602 C 196.446 208.602,196.237 209.039,196.237 210.622 C 196.237 211.619,196.150 211.803,195.648 211.876 C 194.802 212.000,194.595 213.130,194.683 217.138 L 194.758 220.565 195.497 220.650 C 196.203 220.731,196.237 220.802,196.237 222.195 C 196.237 223.639,196.246 223.656,197.043 223.656 C 197.760 223.656,197.849 223.746,197.849 224.462 C 197.849 225.179,197.939 225.269,198.656 225.269 C 199.373 225.269,199.462 225.358,199.462 226.075 C 199.462 226.874,199.477 226.882,200.941 226.882 C 202.342 226.882,202.419 226.917,202.419 227.559 L 202.419 228.236 208.266 228.164 C 214.003 228.093,214.118 228.080,214.373 227.499 C 214.523 227.156,214.920 226.873,215.314 226.827 C 216.087 226.737,216.334 225.144,215.999 222.411 C 215.831 221.044,215.819 221.030,214.744 220.858 C 213.065 220.589,211.853 220.909,211.662 221.670 C 211.406 222.688,205.376 222.679,205.376 221.661 C 205.376 221.162,205.195 220.971,204.597 220.839 C 204.145 220.740,203.761 220.450,203.682 220.147 C 203.607 219.860,203.262 219.511,202.915 219.373 C 202.499 219.206,204.862 219.114,209.886 219.103 L 217.486 219.086 217.413 214.718 C 217.340 210.418,217.329 210.348,216.734 210.264 C 216.264 210.197,216.129 210.002,216.129 209.390 C 216.129 208.694,216.035 208.602,215.323 208.602 C 214.606 208.602,214.516 208.513,214.516 207.796 C 214.516 207.079,214.427 206.989,213.710 206.989 C 213.029 206.989,212.903 206.885,212.903 206.317 L 212.903 205.645 206.362 205.645 C 202.764 205.645,199.740 205.726,199.642 205.824 M219.090 216.599 C 219.092 222.624,219.193 227.709,219.313 227.898 C 219.476 228.156,220.407 228.224,223.005 228.167 L 226.478 228.091 226.613 220.565 L 226.747 213.038 227.352 212.952 C 227.729 212.898,228.018 212.620,228.120 212.213 C 228.277 211.586,228.376 211.559,230.526 211.559 L 232.768 211.559 232.849 212.970 C 232.925 214.287,232.980 214.387,233.669 214.467 L 234.409 214.552 234.409 221.398 L 234.409 228.243 237.433 228.167 L 240.457 228.091 240.457 218.414 L 240.457 208.737 239.734 208.653 C 239.175 208.589,238.992 208.405,238.928 207.847 C 238.863 207.283,238.681 207.105,238.105 207.039 C 237.524 206.972,237.366 206.813,237.366 206.299 L 237.366 205.645 228.226 205.645 L 219.086 205.645 219.090 216.599 M258.935 216.868 L 259.005 228.091 262.328 228.167 C 266.790 228.269,266.398 229.015,266.398 220.415 L 266.398 213.208 267.137 213.123 C 267.712 213.057,267.895 212.878,267.960 212.318 C 268.042 211.608,268.076 211.596,270.312 211.511 L 272.582 211.425 272.581 212.298 C 272.581 212.974,272.466 213.172,272.076 213.172 C 271.146 213.172,270.943 213.802,271.025 216.438 L 271.102 218.952 271.841 219.037 L 272.581 219.122 272.581 221.389 L 272.581 223.656 273.387 223.656 C 274.104 223.656,274.194 223.746,274.194 224.462 C 274.194 225.143,274.298 225.269,274.866 225.269 C 275.395 225.269,275.538 225.405,275.538 225.912 C 275.538 226.674,275.974 226.882,277.576 226.882 C 278.663 226.882,278.763 226.938,278.763 227.554 L 278.763 228.226 284.005 228.226 L 289.247 228.226 289.247 227.554 C 289.247 226.938,289.347 226.882,290.438 226.882 C 291.654 226.882,292.473 226.387,292.473 225.653 C 292.473 225.422,292.742 225.269,293.145 225.269 C 293.713 225.269,293.817 225.143,293.817 224.462 C 293.817 223.865,293.943 223.656,294.301 223.656 C 295.364 223.656,295.430 223.244,295.430 216.613 L 295.430 210.215 294.638 210.215 C 293.871 210.215,293.843 210.169,293.764 208.804 L 293.683 207.392 292.272 207.142 C 291.047 206.924,290.860 206.809,290.860 206.268 L 290.860 205.645 284.005 205.645 L 277.151 205.645 277.151 206.283 C 277.151 206.844,276.991 206.941,275.809 207.098 C 274.715 207.243,274.440 207.388,274.315 207.886 C 274.227 208.236,273.824 208.624,273.371 208.795 L 272.581 209.093 272.581 207.369 L 272.581 205.645 268.835 205.645 L 265.089 205.645 264.977 206.384 L 264.866 207.124 264.825 206.384 L 264.785 205.645 261.825 205.645 L 258.865 205.645 258.935 216.868 M207.176 210.753 C 207.453 211.487,207.590 211.559,208.713 211.559 C 209.904 211.559,209.946 211.587,209.946 212.366 L 209.946 213.172 206.519 213.151 C 204.634 213.139,203.243 213.069,203.427 212.994 C 203.612 212.919,203.763 212.566,203.763 212.209 C 203.763 211.666,203.896 211.559,204.570 211.559 C 205.287 211.559,205.376 211.470,205.376 210.753 C 205.376 210.050,205.472 209.946,206.124 209.946 C 206.708 209.946,206.938 210.123,207.176 210.753 M284.946 210.753 C 284.946 211.470,285.036 211.559,285.753 211.559 C 286.434 211.559,286.559 211.664,286.559 212.231 C 286.559 212.769,286.694 212.903,287.231 212.903 C 287.838 212.903,287.903 213.010,287.903 213.996 C 287.903 215.353,288.298 216.129,288.988 216.129 C 289.914 216.129,289.717 217.683,288.777 217.791 C 288.089 217.870,288.032 217.973,287.957 219.271 C 287.882 220.563,287.823 220.672,287.151 220.750 C 286.584 220.815,286.406 220.996,286.340 221.573 L 286.255 222.312 284.005 222.312 L 281.756 222.312 281.671 221.573 C 281.604 220.992,281.427 220.815,280.847 220.748 C 280.266 220.681,280.108 220.523,280.108 220.009 C 280.108 219.461,279.976 219.355,279.301 219.355 L 278.495 219.355 278.495 216.953 L 278.495 214.552 279.234 214.467 C 279.923 214.387,279.979 214.287,280.054 212.970 L 280.136 211.559 281.607 211.559 C 283.026 211.559,283.084 211.531,283.239 210.753 C 283.374 210.081,283.530 209.946,284.173 209.946 C 284.853 209.946,284.946 210.044,284.946 210.753 M240.771 231.631 C 240.672 231.729,240.591 238.930,240.591 247.633 L 240.591 263.456 244.288 263.381 L 247.984 263.306 248.053 247.545 L 248.123 231.784 247.516 231.622 C 246.688 231.400,240.994 231.408,240.771 231.631 M171.774 248.261 L 171.774 263.458 174.798 263.382 L 177.823 263.306 177.895 257.997 L 177.968 252.688 181.726 252.688 L 185.484 252.688 185.484 252.016 C 185.484 251.391,185.576 251.344,186.794 251.344 C 188.913 251.344,189.772 251.084,189.946 250.392 C 190.034 250.042,190.375 249.709,190.740 249.617 C 191.272 249.484,191.410 249.232,191.556 248.130 C 191.699 247.049,191.838 246.788,192.304 246.721 C 193.215 246.592,193.195 238.178,192.284 237.778 C 191.941 237.627,191.658 237.230,191.612 236.837 C 191.551 236.318,191.356 236.136,190.793 236.071 C 190.212 236.004,190.054 235.845,190.054 235.332 C 190.054 234.784,189.922 234.677,189.247 234.677 C 188.650 234.677,188.441 234.552,188.441 234.194 C 188.441 233.109,188.102 233.065,179.785 233.065 L 171.774 233.065 171.774 248.261 M286.470 233.244 C 286.371 233.342,286.290 233.705,286.290 234.050 C 286.290 234.631,286.182 234.677,284.812 234.677 C 283.348 234.677,283.333 234.686,283.333 235.484 C 283.333 236.153,283.225 236.290,282.696 236.290 C 281.865 236.290,281.727 237.115,281.723 242.118 C 281.720 246.060,281.908 246.774,282.949 246.774 C 283.180 246.774,283.333 247.043,283.333 247.446 C 283.333 248.014,283.459 248.118,284.140 248.118 C 284.737 248.118,284.946 248.244,284.946 248.602 C 284.946 249.478,285.527 249.731,287.536 249.731 C 289.457 249.731,289.481 249.740,289.565 250.470 C 289.645 251.159,289.747 251.215,291.045 251.290 C 292.247 251.360,292.451 251.453,292.523 251.962 C 292.582 252.377,292.823 252.579,293.330 252.637 C 293.836 252.696,294.078 252.897,294.137 253.309 C 294.183 253.633,294.493 254.017,294.825 254.163 C 295.732 254.561,295.680 255.914,294.758 255.914 C 294.191 255.914,294.086 256.039,294.086 256.720 L 294.086 257.527 290.188 257.527 L 286.290 257.527 286.290 256.710 L 286.290 255.892 284.073 255.970 L 281.855 256.048 281.775 257.577 C 281.704 258.918,281.622 259.116,281.103 259.190 C 280.593 259.263,280.511 259.442,280.511 260.484 L 280.511 261.694 281.922 261.775 C 283.287 261.853,283.333 261.882,283.333 262.648 L 283.333 263.441 290.060 263.441 L 296.788 263.441 296.949 262.634 C 297.104 261.858,297.165 261.828,298.555 261.828 C 299.900 261.828,300.000 261.783,300.000 261.185 C 300.000 260.725,300.189 260.495,300.668 260.375 C 301.589 260.143,301.642 259.748,301.555 253.763 L 301.478 248.522 300.756 248.438 C 300.197 248.373,300.014 248.190,299.949 247.632 C 299.872 246.963,299.761 246.903,298.471 246.828 C 297.179 246.753,297.070 246.694,296.992 246.021 C 296.913 245.338,296.819 245.291,295.363 245.215 C 293.924 245.140,293.817 245.089,293.817 244.476 C 293.817 243.857,293.729 243.817,292.339 243.817 C 291.019 243.817,290.860 243.757,290.860 243.256 C 290.860 242.880,290.595 242.595,290.054 242.391 C 289.286 242.101,289.247 242.012,289.247 240.532 L 289.247 238.978 294.624 238.978 L 300.000 238.978 300.000 238.306 C 300.000 237.828,300.146 237.634,300.505 237.634 C 301.858 237.634,302.080 234.881,300.739 234.727 C 300.120 234.656,300.000 234.514,300.000 233.853 L 300.000 233.065 293.324 233.065 C 289.653 233.065,286.568 233.145,286.470 233.244 M184.140 239.785 C 184.140 240.466,184.244 240.591,184.812 240.591 C 185.800 240.591,185.864 243.726,184.879 243.866 C 184.497 243.920,184.243 244.168,184.191 244.539 C 184.134 244.939,183.855 245.181,183.317 245.299 C 182.708 245.433,182.527 245.622,182.527 246.124 C 182.527 246.761,182.480 246.774,180.242 246.774 L 177.957 246.774 177.957 242.876 L 177.957 238.978 181.048 238.978 L 184.140 238.978 184.140 239.785 M195.046 241.014 C 194.814 241.246,194.624 241.601,194.624 241.802 C 194.624 242.003,194.351 242.206,194.019 242.253 C 193.115 242.381,193.100 244.982,194.003 245.111 C 194.415 245.169,194.616 245.411,194.675 245.917 L 194.758 246.640 199.395 246.713 L 204.032 246.787 204.032 247.453 C 204.032 247.986,204.179 248.130,204.772 248.175 C 205.178 248.207,203.515 248.297,201.075 248.377 C 196.767 248.517,196.637 248.538,196.556 249.111 C 196.493 249.554,196.260 249.720,195.615 249.783 C 194.905 249.851,194.743 249.992,194.673 250.605 C 194.606 251.185,194.448 251.344,193.934 251.344 C 193.389 251.344,193.280 251.476,193.280 252.133 C 193.280 252.793,193.159 252.935,192.540 253.006 L 191.801 253.091 191.723 256.048 C 191.629 259.585,191.739 260.150,192.541 260.264 C 192.973 260.325,193.169 260.560,193.230 261.089 C 193.297 261.669,193.456 261.828,193.969 261.828 C 194.420 261.828,194.624 261.978,194.624 262.312 C 194.624 263.348,195.094 263.441,200.323 263.441 C 204.184 263.441,205.377 263.362,205.380 263.105 C 205.384 262.843,205.433 262.845,205.603 263.113 C 205.767 263.371,206.697 263.439,209.295 263.382 L 212.769 263.306 212.769 261.156 C 212.769 259.130,212.734 259.000,212.164 258.919 L 211.559 258.834 211.559 251.325 L 211.559 243.817 210.753 243.817 C 210.036 243.817,209.946 243.728,209.946 243.011 C 209.946 242.294,209.857 242.204,209.140 242.204 C 208.423 242.204,208.333 242.115,208.333 241.398 L 208.333 240.591 201.901 240.591 C 196.412 240.591,195.407 240.653,195.046 241.014 M216.193 250.470 L 216.263 260.349 217.003 260.435 C 217.583 260.501,217.742 260.660,217.742 261.174 C 217.742 261.688,217.882 261.828,218.396 261.828 C 218.910 261.828,219.069 261.987,219.135 262.567 L 219.220 263.306 228.226 263.306 L 237.231 263.306 237.301 252.089 L 237.371 240.872 236.764 240.721 C 236.429 240.638,234.765 240.605,233.065 240.648 L 229.973 240.726 229.902 248.320 L 229.830 255.914 229.028 255.914 C 228.316 255.914,228.226 256.005,228.226 256.720 L 228.226 257.527 225.941 257.527 L 223.656 257.527 223.652 256.384 C 223.647 255.052,223.454 254.670,222.715 254.530 C 222.196 254.432,222.175 254.186,222.106 247.510 L 222.034 240.591 219.078 240.591 L 216.122 240.591 216.193 250.470 M252.867 240.771 C 252.769 240.869,252.688 241.232,252.688 241.577 C 252.688 242.067,252.541 242.204,252.016 242.204 C 251.352 242.204,251.344 242.230,251.344 244.507 L 251.344 246.809 255.175 246.773 C 262.250 246.704,261.828 246.653,261.828 247.581 L 261.828 248.387 258.065 248.387 L 254.301 248.387 254.301 249.045 C 254.301 249.649,254.186 249.710,252.890 249.784 C 251.582 249.860,251.472 249.918,251.395 250.589 C 251.330 251.147,251.147 251.330,250.589 251.395 L 249.866 251.478 249.792 256.282 C 249.709 261.710,249.745 261.828,251.494 261.828 C 252.558 261.828,252.659 261.888,252.738 262.567 L 252.823 263.306 257.910 263.380 C 261.801 263.436,263.049 263.373,263.215 263.111 C 263.386 262.842,263.434 262.841,263.437 263.105 C 263.440 263.353,264.214 263.441,266.401 263.441 L 269.362 263.441 269.291 254.368 L 269.220 245.296 268.616 245.210 C 268.108 245.138,268.011 244.958,268.011 244.089 C 268.011 242.644,267.785 242.204,267.041 242.204 C 266.542 242.204,266.398 242.060,266.398 241.561 C 266.398 241.207,266.207 240.844,265.973 240.755 C 265.392 240.532,253.091 240.547,252.867 240.771 M309.319 240.771 C 309.220 240.869,309.140 241.226,309.140 241.563 C 309.140 242.113,308.995 242.185,307.728 242.257 C 306.412 242.333,306.311 242.388,306.232 243.078 C 306.167 243.648,306.004 243.817,305.522 243.817 C 304.793 243.817,304.570 244.264,304.570 245.721 C 304.570 246.665,304.500 246.774,303.898 246.774 L 303.226 246.774 303.226 252.016 L 303.226 257.258 303.898 257.258 C 304.514 257.258,304.570 257.358,304.570 258.449 C 304.570 259.654,305.063 260.484,305.780 260.484 C 305.981 260.484,306.184 260.756,306.231 261.089 C 306.306 261.615,306.499 261.704,307.712 261.774 C 309.004 261.849,309.113 261.909,309.190 262.581 L 309.274 263.306 315.261 263.379 L 321.248 263.451 321.408 262.653 C 321.557 261.905,321.656 261.849,322.948 261.774 C 324.145 261.704,324.339 261.614,324.414 261.089 C 324.461 260.756,324.664 260.484,324.865 260.484 C 325.582 260.484,326.075 259.654,326.075 258.449 C 326.075 257.358,326.132 257.258,326.747 257.258 L 327.419 257.258 327.419 252.016 L 327.419 246.774 326.761 246.774 C 326.157 246.774,326.097 246.659,326.022 245.363 C 325.946 244.047,325.891 243.946,325.202 243.867 C 324.582 243.795,324.462 243.653,324.462 242.993 C 324.462 242.302,324.366 242.204,323.685 242.204 C 323.091 242.204,322.870 242.054,322.748 241.567 C 322.636 241.121,322.333 240.878,321.744 240.760 C 320.613 240.534,309.546 240.543,309.319 240.771 M329.219 240.763 C 328.990 240.992,328.968 257.852,329.195 258.446 C 329.285 258.680,329.648 258.871,330.002 258.871 C 330.581 258.871,330.645 258.987,330.645 260.027 C 330.645 261.476,330.994 261.828,332.428 261.828 C 333.470 261.828,333.574 261.891,333.651 262.567 L 333.737 263.306 338.824 263.380 C 342.715 263.436,343.963 263.373,344.129 263.111 C 344.300 262.842,344.347 262.841,344.351 263.105 C 344.354 263.353,345.128 263.441,347.312 263.441 L 350.269 263.441 350.269 252.016 L 350.269 240.591 347.312 240.591 L 344.355 240.591 344.355 247.428 L 344.355 254.265 343.616 254.350 C 343.040 254.417,342.858 254.595,342.793 255.158 C 342.734 255.664,342.533 255.906,342.121 255.965 C 341.705 256.024,341.507 256.265,341.447 256.788 C 341.365 257.500,341.306 257.527,339.785 257.527 C 338.264 257.527,338.205 257.500,338.123 256.788 C 338.056 256.208,337.879 256.030,337.303 255.964 L 336.567 255.879 336.496 248.302 L 336.425 240.726 332.915 240.651 C 330.985 240.610,329.322 240.661,329.219 240.763 M353.495 243.683 L 353.495 246.774 357.392 246.774 L 361.290 246.774 361.290 247.581 C 361.290 248.297,361.201 248.387,360.484 248.387 C 359.803 248.387,359.677 248.492,359.677 249.059 C 359.677 249.527,359.530 249.731,359.194 249.731 C 358.586 249.731,358.065 250.238,358.065 250.829 C 358.065 251.078,357.824 251.344,357.530 251.421 C 356.951 251.573,356.452 252.603,356.452 253.647 C 356.452 254.166,356.312 254.301,355.780 254.301 C 355.212 254.301,355.108 254.427,355.108 255.108 C 355.108 255.824,355.018 255.914,354.301 255.914 C 353.584 255.914,353.495 256.004,353.495 256.720 C 353.495 257.439,353.406 257.527,352.679 257.527 L 351.864 257.527 351.940 260.417 L 352.016 263.306 362.573 263.377 L 373.130 263.447 373.292 262.638 C 373.534 261.430,375.000 261.426,375.000 262.634 L 375.000 263.439 383.337 263.433 L 391.673 263.426 391.603 253.689 L 391.532 243.952 390.793 243.867 C 390.174 243.795,390.054 243.653,390.054 242.993 C 390.054 242.300,389.958 242.204,389.265 242.204 C 388.605 242.204,388.463 242.084,388.392 241.465 L 388.306 240.726 381.720 240.726 L 375.134 240.726 375.049 241.465 C 374.978 242.084,374.836 242.204,374.176 242.204 L 373.387 242.204 373.387 244.326 C 373.387 246.948,372.976 246.774,379.189 246.774 L 384.140 246.774 384.140 247.428 C 384.140 247.936,384.306 248.108,384.879 248.195 C 385.286 248.256,383.594 248.325,381.121 248.347 L 376.623 248.387 376.462 249.027 C 376.330 249.556,376.077 249.697,375.005 249.840 C 373.575 250.029,373.387 250.269,373.387 251.904 C 373.387 252.895,373.339 252.957,372.581 252.957 L 371.774 252.957 371.774 255.242 L 371.774 257.527 367.204 257.527 L 362.634 257.527 362.634 256.738 C 362.634 256.078,362.755 255.936,363.374 255.865 C 363.954 255.798,364.131 255.621,364.198 255.040 C 364.265 254.460,364.423 254.301,364.937 254.301 C 365.485 254.301,365.591 254.170,365.591 253.495 C 365.591 252.778,365.681 252.688,366.398 252.688 C 367.079 252.688,367.204 252.584,367.204 252.016 C 367.204 251.548,367.351 251.344,367.688 251.344 C 368.284 251.344,368.817 250.841,368.817 250.279 C 368.817 250.048,369.089 249.739,369.422 249.593 C 369.755 249.447,370.066 249.056,370.113 248.723 C 370.164 248.362,370.386 248.118,370.664 248.118 C 371.625 248.118,371.774 247.568,371.774 244.032 L 371.774 240.591 362.634 240.591 L 353.495 240.591 353.495 243.683 M318.548 247.446 C 318.548 247.984,318.683 248.118,319.220 248.118 L 319.892 248.118 319.892 251.325 C 319.892 254.447,319.876 254.535,319.288 254.618 C 318.761 254.693,318.672 254.886,318.602 256.116 L 318.520 257.527 315.323 257.527 L 312.125 257.527 312.044 256.116 C 311.973 254.886,311.884 254.693,311.358 254.618 C 310.769 254.535,310.753 254.447,310.753 251.325 L 310.753 248.118 311.425 248.118 C 311.962 248.118,312.097 247.984,312.097 247.446 L 312.097 246.774 315.323 246.774 L 318.548 246.774 318.548 247.446 M205.376 254.301 C 205.376 255.842,205.346 255.914,204.704 255.914 C 204.137 255.914,204.032 256.039,204.032 256.720 L 204.032 257.527 201.596 257.527 L 199.159 257.527 199.244 256.653 C 199.308 255.984,199.469 255.760,199.933 255.694 C 200.367 255.632,200.538 255.427,200.538 254.968 C 200.538 254.377,200.657 254.322,202.083 254.247 C 203.547 254.171,203.634 254.127,203.714 253.427 C 203.916 251.674,205.376 252.442,205.376 254.301 M261.828 254.237 C 261.828 255.586,261.750 255.821,261.223 256.052 C 260.890 256.198,260.580 256.589,260.532 256.922 C 260.379 258.005,257.362 257.822,257.201 256.720 C 256.907 254.716,257.175 254.301,258.767 254.301 C 260.197 254.301,260.215 254.291,260.215 253.495 C 260.215 252.778,260.305 252.688,261.022 252.688 C 261.824 252.688,261.828 252.695,261.828 254.237 M385.484 253.610 C 385.484 254.362,385.372 254.548,384.879 254.618 C 384.352 254.693,384.264 254.886,384.193 256.116 L 384.112 257.527 381.706 257.527 L 379.301 257.527 379.301 255.914 L 379.301 254.301 381.263 254.301 C 383.290 254.301,383.871 254.050,383.871 253.172 C 383.871 252.814,384.080 252.688,384.677 252.688 C 385.417 252.688,385.484 252.765,385.484 253.610 " stroke="none" fill="#040404" fill-rule="evenodd"></path><path id="path1" d="" stroke="none" fill="#080404" fill-rule="evenodd"></path><path id="path2" d="" stroke="none" fill="#080404" fill-rule="evenodd"></path><path id="path3" d="" stroke="none" fill="#080404" fill-rule="evenodd"></path><path id="path4" d="" stroke="none" fill="#080404" fill-rule="evenodd"></path></g></svg>