<?xml version="1.0" standalone="no"?>
<!DOCTYPE svg PUBLIC "-//W3C//DTD SVG 20010904//EN"
 "http://www.w3.org/TR/2001/REC-SVG-20010904/DTD/svg10.dtd">
<svg version="1.0" xmlns="http://www.w3.org/2000/svg"
 width="706.000000pt" height="290.000000pt" viewBox="0 0 706.000000 290.000000"
 preserveAspectRatio="xMidYMid meet">

<g transform="translate(0.000000,290.000000) scale(0.100000,-0.100000)"
fill="#000000" stroke="none">
<path d="M5376 2423 c-52 -61 -107 -78 -276 -87 -217 -12 -300 -29 -358 -72
-41 -32 -68 -82 -52 -98 6 -6 10 -6 9 -1 -5 16 29 72 53 89 79 56 118 -42 46
-114 -34 -34 -71 -39 -90 -11 -33 47 -37 11 -35 -314 l2 -320 58 -3 57 -3 0
66 0 65 58 0 c72 0 135 28 162 72 17 26 20 45 18 96 l-4 62 42 0 42 0 -68
-160 c-95 -222 -93 -200 -20 -200 l62 0 15 40 16 40 82 0 82 0 16 -40 15 -40
61 0 c34 0 61 4 61 10 0 5 -34 89 -75 186 -41 97 -75 180 -75 183 0 4 18 15
40 25 46 20 90 69 90 99 0 20 -3 19 -26 -11 -27 -33 -78 -64 -127 -76 -16 -4
-98 -11 -182 -16 -236 -14 -333 -44 -376 -114 -25 -41 -24 -26 1 24 11 22 38
51 58 65 46 30 152 54 242 55 122 1 259 19 310 41 56 24 100 69 100 102 0 19
-3 18 -30 -11 -53 -59 -103 -73 -306 -88 -252 -19 -289 -28 -351 -87 -20 -18
-33 -25 -33 -17 0 7 19 32 43 55 56 54 123 72 287 80 231 11 310 32 364 95 37
44 34 71 -3 31 -52 -55 -105 -71 -274 -82 -264 -17 -335 -35 -394 -103 -38
-43 -41 -40 -13 14 11 22 38 51 58 65 47 31 153 55 247 55 119 1 254 19 306
41 54 24 99 69 99 101 0 17 -6 15 -38 -18 -20 -22 -55 -45 -77 -52 -22 -7
-123 -20 -225 -28 -218 -17 -289 -34 -342 -82 -53 -48 -48 -18 5 33 57 54 124
72 292 80 229 11 304 31 359 95 14 17 26 41 26 53 0 20 -3 19 -26 -11 -52 -66
-102 -79 -381 -97 -88 -6 -103 -4 -103 9 0 20 16 23 160 31 144 7 220 20 272
46 43 22 78 63 78 93 0 19 -3 18 -25 -10 -45 -58 -99 -74 -294 -90 -97 -7
-179 -14 -183 -14 -5 0 -8 9 -8 20 0 15 7 20 28 20 102 1 315 21 350 33 59 21
110 57 123 89 17 43 7 47 -25 11z m-493 -149 c-7 -18 -33 -18 -33 -1 0 19 10
27 25 20 8 -2 11 -11 8 -19z m0 -100 c-7 -18 -33 -18 -33 -1 0 19 10 27 25 20
8 -2 11 -11 8 -19z m-183 -95 c0 -11 -4 -18 -10 -14 -5 3 -7 12 -3 20 7 21 13
19 13 -6z m191 -269 c23 -13 26 -62 4 -80 -8 -7 -35 -15 -60 -18 l-45 -5 0 50
c0 27 3 53 7 56 10 11 72 8 94 -3z m328 -93 l20 -47 -44 0 -44 0 21 50 c11 28
22 49 24 48 1 -2 12 -25 23 -51z"/>
<path d="M4759 2233 c-9 -2 -21 -15 -28 -29 -14 -31 -14 -37 -1 -29 13 8 42
-14 34 -26 -3 -5 -1 -9 4 -9 8 0 52 79 52 94 0 6 -35 6 -61 -1z"/>
<path d="M1117 2046 c-161 -44 -227 -236 -127 -374 47 -65 97 -86 215 -92
l100 -5 3 -172 2 -173 40 0 40 0 2 173 3 172 83 3 82 3 0 39 0 40 -85 0 -86 0
6 38 c14 83 18 95 46 127 74 84 203 64 250 -39 34 -75 19 -149 -40 -199 -29
-24 -41 -27 -102 -27 l-69 0 0 -45 0 -45 305 0 c329 0 366 5 399 54 41 63 24
149 -36 186 -18 11 -77 34 -131 51 -62 20 -101 37 -107 49 -13 24 -13 26 6 44
12 13 41 16 150 16 l134 0 0 40 0 40 -149 0 c-138 0 -150 -2 -182 -23 -57 -38
-74 -98 -44 -157 19 -38 63 -63 165 -95 98 -32 122 -49 118 -84 l-3 -26 -177
-3 -178 -2 23 37 c17 30 22 53 21 108 -1 113 -49 195 -139 236 -50 23 -152 25
-203 3 -84 -35 -142 -127 -142 -226 l0 -58 -73 0 c-126 0 -200 58 -200 155 0
49 25 98 66 129 20 15 47 21 97 24 l70 4 0 44 0 44 -52 -1 c-29 0 -75 -6 -101
-13z"/>
<path d="M3835 2050 c-27 -10 -42 -29 -50 -62 -6 -23 -3 -28 19 -34 16 -4 32
-1 41 6 13 10 27 11 70 1 30 -7 64 -10 75 -6 21 7 50 53 50 78 0 21 -52 29
-65 10 -10 -13 -17 -13 -65 1 -29 9 -54 16 -54 15 -1 0 -10 -4 -21 -9z"/>
<path d="M3432 1917 c-77 -29 -116 -104 -89 -169 19 -45 50 -66 134 -89 74
-21 88 -30 80 -53 -10 -25 -84 -20 -134 8 l-43 25 -30 -37 c-17 -20 -29 -41
-27 -47 2 -5 23 -21 48 -35 38 -22 56 -25 136 -25 77 0 96 3 120 21 41 30 67
87 58 131 -10 53 -43 79 -139 108 -67 20 -86 30 -86 45 0 34 60 35 125 2 28
-14 30 -14 57 19 15 18 28 39 28 47 0 38 -174 74 -238 49z"/>
<path d="M4256 1915 c-51 -18 -85 -44 -114 -85 -100 -148 6 -344 186 -343 134
0 231 92 232 219 0 154 -156 262 -304 209z m130 -114 c60 -36 69 -127 19 -177
-37 -36 -107 -34 -146 5 -48 48 -38 138 19 174 35 22 70 21 108 -2z"/>
<path d="M6269 1902 c-77 -40 -114 -102 -114 -192 0 -57 5 -74 30 -115 92
-148 322 -138 400 18 98 198 -116 394 -316 289z m174 -102 c82 -65 38 -200
-65 -200 -30 0 -46 7 -69 29 -25 25 -29 37 -29 81 0 44 4 56 29 81 36 36 95
40 134 9z"/>
<path d="M3835 1888 c-7 -18 -47 -113 -88 -211 -55 -130 -72 -180 -62 -183 7
-3 34 -4 61 -2 46 3 50 6 67 41 l17 37 79 0 79 0 16 -40 16 -40 60 0 c35 0 60
4 60 10 0 6 -36 97 -81 203 -45 106 -83 198 -86 205 -3 8 -26 12 -65 12 -57 0
-59 -1 -73 -32z m89 -151 c32 -77 31 -77 -13 -77 -26 0 -41 5 -41 12 0 14 31
98 36 98 2 0 10 -15 18 -33z"/>
<path d="M5400 1806 c0 -199 26 -268 115 -301 61 -24 159 -16 211 15 61 38 74
81 74 253 l0 147 -60 0 -60 0 0 -134 c0 -120 -2 -136 -21 -160 -27 -34 -79
-36 -109 -4 -18 20 -20 35 -20 160 l0 138 -65 0 -65 0 0 -114z"/>
<path d="M5830 1705 l0 -215 160 0 160 0 0 55 0 55 -100 0 -100 0 0 160 0 160
-60 0 -60 0 0 -215z"/>
<path d="M1504 1430 c-30 -12 -37 -39 -19 -66 15 -24 65 -34 65 -14 0 5 -6 7
-13 4 -7 -2 -21 2 -31 9 -26 19 -13 57 20 57 14 0 22 4 19 10 -7 12 -13 12
-41 0z"/>
<path d="M3361 1424 c-13 -9 -29 -31 -37 -50 -40 -95 58 -184 153 -138 35 18
38 23 41 67 l3 47 -50 0 c-44 0 -51 -3 -51 -20 0 -15 7 -20 26 -20 37 0 29
-34 -9 -38 -39 -5 -67 23 -67 64 0 47 36 71 82 55 28 -10 35 -9 46 6 10 15 9
19 -10 30 -32 18 -99 16 -127 -3z"/>
<path d="M3581 1414 c-86 -72 -17 -210 94 -190 37 7 80 50 89 88 8 35 -14 90
-45 112 -37 25 -102 21 -138 -10z m107 -30 c44 -30 19 -114 -35 -114 -28 0
-63 33 -63 60 0 23 42 70 62 70 8 0 24 -7 36 -16z"/>
<path d="M3760 1436 c0 -3 19 -51 41 -106 36 -85 45 -100 64 -100 23 0 29 12
102 198 4 10 -2 13 -22 10 -25 -3 -31 -11 -53 -71 -14 -37 -26 -66 -28 -65 -1
2 -13 32 -27 68 -20 55 -28 65 -50 68 -15 2 -27 1 -27 -2z"/>
<path d="M3990 1335 l0 -105 85 0 c78 0 85 2 85 20 0 18 -7 20 -60 20 -53 0
-60 2 -60 20 0 17 7 20 50 20 47 0 50 2 50 25 0 23 -3 25 -50 25 -38 0 -50 4
-50 15 0 12 13 15 55 15 52 0 55 1 55 25 0 25 -1 25 -80 25 l-80 0 0 -105z"/>
<path d="M4180 1335 l0 -105 25 0 c21 0 25 5 25 30 0 19 5 30 14 30 8 0 24
-13 36 -30 16 -22 29 -30 51 -30 l30 0 -20 29 c-25 35 -26 44 -6 61 11 9 15
26 13 54 -4 51 -29 66 -110 66 l-58 0 0 -105z m118 33 c-2 -18 -11 -24 -35
-26 -30 -3 -33 -1 -33 22 0 23 4 26 36 26 31 0 35 -3 32 -22z"/>
<path d="M4380 1335 l0 -105 25 0 c24 0 25 3 25 61 l0 62 47 -62 c34 -43 54
-61 70 -61 23 0 23 2 23 105 0 105 0 105 -25 105 -23 0 -24 -4 -27 -61 l-3
-61 -44 61 c-33 45 -51 61 -68 61 -23 0 -23 -2 -23 -105z"/>
<path d="M4631 1414 c-60 -50 -47 -144 24 -178 48 -23 93 -15 131 25 23 24 29
39 29 75 0 39 -5 50 -33 75 -44 39 -107 41 -151 3z m100 -25 c42 -22 40 -101
-3 -114 -73 -24 -117 75 -50 114 22 13 29 13 53 0z"/>
<path d="M4898 1434 c-5 -4 -8 -52 -8 -106 l0 -98 60 0 c70 0 111 17 128 55
20 43 14 82 -17 117 -25 28 -35 32 -92 36 -35 2 -67 0 -71 -4z m124 -61 c38
-34 7 -103 -47 -103 -24 0 -25 3 -25 60 0 58 1 60 27 60 14 0 35 -7 45 -17z"/>
<path d="M5170 1427 c-34 -17 -62 -74 -54 -112 3 -16 18 -42 32 -57 69 -75
192 -22 192 83 0 47 -56 99 -106 99 -22 0 -50 -6 -64 -13z m95 -52 c30 -29 32
-58 5 -85 -41 -41 -100 -13 -100 46 0 23 7 38 22 48 31 22 45 20 73 -9z"/>
<path d="M5420 1335 l0 -105 80 0 c73 0 80 2 80 20 0 18 -7 20 -55 20 -48 0
-55 3 -55 19 0 17 8 20 48 23 39 3 47 6 47 23 0 17 -8 20 -47 23 -33 2 -48 8
-48 17 0 10 16 15 53 17 45 3 52 6 55 26 3 21 1 22 -77 22 l-81 0 0 -105z"/>
<path d="M5620 1420 c-39 -39 -16 -89 49 -109 46 -13 56 -41 15 -41 -14 0 -35
5 -46 11 -16 9 -23 8 -29 -2 -14 -23 -11 -29 27 -45 61 -26 124 3 124 56 0 33
-23 55 -70 67 -20 5 -35 16 -35 24 0 15 26 17 61 5 16 -5 23 -2 28 11 16 42
-86 61 -124 23z"/>
<path d="M5780 1415 c0 -21 5 -25 30 -25 l30 0 0 -80 c0 -79 0 -80 25 -80 25
0 25 1 25 80 l0 80 30 0 c25 0 30 4 30 25 0 25 -1 25 -85 25 -84 0 -85 0 -85
-25z"/>
<path d="M5966 1348 c-21 -51 -41 -99 -43 -105 -3 -8 4 -13 20 -13 17 0 28 7
32 20 9 29 87 29 107 -1 8 -13 21 -20 35 -17 21 3 20 6 -21 103 -36 85 -47
100 -67 103 -23 3 -29 -5 -63 -90z m84 -20 c0 -4 -9 -8 -20 -8 -21 0 -24 8
-13 36 6 16 7 16 20 -2 7 -10 13 -21 13 -26z"/>
<path d="M6170 1335 l0 -105 66 0 c59 0 68 3 95 29 23 24 29 38 29 73 0 72
-47 108 -141 108 l-49 0 0 -105z m124 39 c38 -38 5 -104 -51 -104 -21 0 -23 4
-23 60 0 60 0 60 29 60 16 0 37 -7 45 -16z"/>
<path d="M6440 1427 c-34 -17 -62 -74 -54 -112 3 -16 18 -42 32 -57 69 -75
192 -22 192 83 0 47 -56 99 -106 99 -22 0 -50 -6 -64 -13z m95 -52 c30 -29 32
-58 5 -85 -41 -41 -100 -13 -100 46 0 23 7 38 22 48 31 22 45 20 73 -9z"/>
<path d="M1723 1419 c-12 -12 -2 -71 12 -76 9 -3 12 74 3 83 -2 2 -9 -1 -15
-7z"/>
<path d="M1564 1396 c-12 -30 0 -51 31 -53 l30 -3 -25 12 -25 11 23 5 c15 2
22 9 20 20 -4 22 -46 28 -54 8z m41 -6 c3 -5 -1 -10 -9 -10 -9 0 -16 5 -16 10
0 6 4 10 9 10 6 0 13 -4 16 -10z"/>
<path d="M1641 1373 c1 -35 2 -36 8 -9 8 38 31 47 31 12 0 -13 5 -28 11 -31 7
-5 9 5 7 26 -2 29 -7 35 -30 37 -26 3 -28 1 -27 -35z"/>
<path d="M1771 1372 c1 -22 3 -28 6 -15 2 12 11 27 19 33 12 10 14 8 14 -14 0
-19 6 -27 26 -32 31 -8 47 6 42 37 -3 21 -9 24 -55 26 l-53 2 1 -37z m89 9 c0
-23 -16 -36 -25 -21 -9 14 1 40 15 40 5 0 10 -9 10 -19z"/>
<path d="M1480 1276 c0 -25 5 -46 10 -46 6 0 10 6 10 14 0 7 9 16 21 19 32 9
22 51 -13 55 -27 3 -28 2 -28 -42z m45 14 c0 -7 -6 -15 -12 -17 -8 -3 -13 4
-13 17 0 13 5 20 13 18 6 -3 12 -11 12 -18z"/>
<path d="M1713 1275 c0 -27 2 -38 4 -22 2 15 2 37 0 50 -2 12 -4 0 -4 -28z"/>
<path d="M1847 1313 c-14 -14 -6 -34 18 -45 28 -13 24 -28 -8 -28 -19 -1 -20
-2 -5 -10 42 -25 66 25 26 53 l-23 15 25 10 25 11 -26 0 c-14 1 -29 -2 -32 -6z"/>
<path d="M1559 1289 c-11 -7 -8 -9 11 -9 25 -1 25 -1 3 -10 -25 -10 -31 -36
-10 -43 25 -8 47 5 47 29 0 27 -29 47 -51 33z m31 -39 c0 -5 -4 -10 -10 -10
-5 0 -10 5 -10 10 0 6 5 10 10 10 6 0 10 -4 10 -10z"/>
<path d="M1749 1289 c-10 -6 -8 -9 11 -9 l25 -1 -23 -10 c-32 -12 -25 -45 8
-41 31 3 34 6 26 35 -7 28 -26 39 -47 26z m31 -39 c0 -5 -7 -10 -16 -10 -8 0
-12 5 -9 10 3 6 10 10 16 10 5 0 9 -4 9 -10z"/>
<path d="M2149 1289 c-11 -7 -8 -9 11 -9 25 -1 25 -1 3 -10 -23 -9 -31 -34
-15 -44 20 -12 52 7 52 30 0 27 -29 47 -51 33z m31 -39 c0 -5 -7 -10 -16 -10
-8 0 -12 5 -9 10 3 6 10 10 16 10 5 0 9 -4 9 -10z"/>
<path d="M1620 1272 c0 -31 23 -52 48 -46 16 5 22 14 22 35 0 16 -4 29 -10 29
-5 0 -10 -11 -10 -25 0 -16 -6 -25 -15 -25 -9 0 -15 9 -15 25 0 14 -4 25 -10
25 -5 0 -10 -8 -10 -18z"/>
<path d="M1916 1275 c-12 -31 17 -61 48 -49 38 14 27 64 -14 64 -16 0 -30 -7
-34 -15z m49 -15 c0 -8 -8 -16 -17 -18 -13 -2 -18 3 -18 18 0 15 5 20 18 18 9
-2 17 -10 17 -18z"/>
<path d="M2000 1261 c0 -31 13 -41 43 -33 18 5 25 62 7 62 -5 0 -10 -11 -10
-25 0 -14 -4 -25 -10 -25 -5 0 -10 11 -10 25 0 14 -4 25 -10 25 -5 0 -10 -13
-10 -29z"/>
<path d="M2088 1283 l24 -5 -23 -24 -22 -24 34 1 c25 0 29 2 16 8 -17 6 -17 8
-3 20 25 21 19 31 -16 30 -26 -1 -28 -3 -10 -6z"/>
<path d="M3316 1003 c-3 -3 -6 -44 -6 -90 0 -67 3 -83 15 -83 12 0 15 16 15
84 0 78 -7 105 -24 89z"/>
<path d="M4160 965 c0 -8 -6 -15 -14 -15 -21 0 -38 -27 -31 -50 4 -13 15 -20
31 -20 22 0 24 4 24 50 0 28 -2 50 -5 50 -3 0 -5 -7 -5 -15z m0 -50 c0 -16 -6
-25 -15 -25 -9 0 -15 9 -15 25 0 16 6 25 15 25 9 0 15 -9 15 -25z"/>
<path d="M4823 930 c0 -30 2 -43 4 -27 2 15 2 39 0 55 -2 15 -4 2 -4 -28z"/>
<path d="M5680 972 c0 -5 7 -9 15 -9 8 0 12 4 9 9 -3 4 -9 8 -15 8 -5 0 -9 -4
-9 -8z"/>
<path d="M3467 963 c-15 -14 -5 -32 24 -42 37 -13 29 -36 -10 -26 -19 5 -23 4
-15 -5 17 -17 58 -8 62 12 2 12 -6 21 -22 28 -34 12 -33 28 2 33 26 4 26 4 -4
6 -17 0 -34 -2 -37 -6z"/>
<path d="M3802 928 c2 -34 7 -43 23 -45 11 -2 14 0 8 3 -15 7 -17 51 -3 56 6
2 1 9 -10 16 -20 12 -21 11 -18 -30z"/>
<path d="M4310 925 c0 -34 4 -45 16 -45 28 0 54 20 54 43 0 29 -18 47 -47 47
-21 0 -23 -5 -23 -45z m53 13 c8 -12 7 -21 -2 -32 -23 -28 -41 -19 -41 20 0
28 4 35 16 32 9 -2 22 -10 27 -20z"/>
<path d="M5218 959 c-2 -6 -2 -26 0 -45 3 -24 9 -34 21 -33 10 0 11 2 4 6 -15
5 -18 50 -4 55 5 2 3 8 -4 15 -9 9 -15 9 -17 2z"/>
<path d="M5380 925 c0 -43 1 -45 28 -44 23 2 24 2 5 6 -28 5 -30 33 -3 33 11
0 20 5 20 10 0 6 -9 10 -20 10 -30 0 -24 18 8 23 25 4 25 4 -5 6 -33 1 -33 0
-33 -44z"/>
<path d="M3549 934 c-17 -21 0 -48 32 -51 23 -1 23 -1 2 4 -30 6 -29 19 1 25
15 3 27 -2 35 -14 6 -10 19 -17 29 -17 16 1 16 2 0 6 -11 3 -18 14 -18 29 0
18 6 24 23 25 17 1 18 2 4 6 -10 3 -25 -1 -33 -8 -11 -9 -18 -9 -26 -1 -16 16
-33 15 -49 -4z m41 -4 c0 -5 -7 -10 -15 -10 -8 0 -15 5 -15 10 0 6 7 10 15 10
8 0 15 -4 15 -10z"/>
<path d="M3681 910 c1 -27 3 -29 6 -10 2 14 11 30 20 37 13 10 13 12 -6 10
-17 -1 -21 -7 -20 -37z"/>
<path d="M3731 932 c-13 -24 4 -52 32 -51 21 0 21 1 -3 12 l-25 11 28 4 c21 2
27 8 23 19 -3 8 -6 17 -6 19 0 13 -41 1 -49 -14z m39 -2 c0 -5 -7 -10 -15 -10
-8 0 -15 5 -15 10 0 6 7 10 15 10 8 0 15 -4 15 -10z"/>
<path d="M3870 941 l25 -8 -27 -11 c-34 -14 -28 -42 9 -42 21 0 24 4 21 33 -2
26 -8 32 -28 34 l-25 2 25 -8z m20 -41 c0 -5 -7 -10 -15 -10 -8 0 -15 5 -15
10 0 6 7 10 15 10 8 0 15 -4 15 -10z"/>
<path d="M3921 910 c1 -27 3 -29 6 -10 2 14 11 30 20 37 13 10 13 12 -6 10
-17 -1 -21 -7 -20 -37z"/>
<path d="M3970 915 c0 -22 4 -34 10 -30 6 3 10 17 10 30 0 13 -4 27 -10 30 -6
4 -10 -8 -10 -30z"/>
<path d="M4024 943 c19 -5 18 -6 -4 -23 -27 -20 -19 -40 16 -40 22 0 25 4 22
33 -2 26 -8 32 -28 34 -18 1 -20 0 -6 -4z m16 -43 c0 -5 -7 -10 -15 -10 -8 0
-15 5 -15 10 0 6 7 10 15 10 8 0 15 -4 15 -10z"/>
<path d="M4194 936 c-11 -28 1 -51 26 -53 l25 -3 -25 12 -25 12 28 4 c20 2 27
8 25 20 -4 22 -46 28 -54 8z m41 -6 c3 -5 -3 -10 -15 -10 -12 0 -18 5 -15 10
3 6 10 10 15 10 5 0 12 -4 15 -10z"/>
<path d="M4399 934 c-17 -21 0 -48 32 -51 23 -1 23 -1 2 4 -27 5 -31 23 -5 23
26 0 34 11 21 27 -15 17 -34 17 -50 -3z m41 -4 c0 -5 -7 -10 -15 -10 -8 0 -15
5 -15 10 0 6 7 10 15 10 8 0 15 -4 15 -10z"/>
<path d="M4470 930 c0 -11 7 -20 15 -20 21 0 19 -18 -2 -23 -14 -4 -12 -5 5
-6 16 -1 22 5 22 19 0 11 -7 20 -15 20 -21 0 -19 18 3 23 13 4 11 5 -5 6 -17
1 -23 -5 -23 -19z"/>
<path d="M4531 932 c-13 -24 4 -52 32 -51 21 0 21 1 -3 12 l-25 11 28 4 c21 2
27 8 23 19 -3 8 -6 17 -6 19 0 13 -41 1 -49 -14z m39 -2 c0 -5 -7 -10 -15 -10
-8 0 -15 5 -15 10 0 6 7 10 15 10 8 0 15 -4 15 -10z"/>
<path d="M4600 915 c0 -22 4 -34 10 -30 6 3 10 17 10 31 0 13 5 24 10 24 6 0
10 -11 10 -24 0 -14 5 -28 11 -31 7 -5 9 5 7 26 -2 29 -7 35 -30 37 -26 3 -28
1 -28 -33z"/>
<path d="M4670 947 c0 -15 23 -67 30 -67 10 0 32 61 25 69 -3 3 -8 -5 -12 -17
-6 -25 -23 -30 -23 -8 0 8 -4 18 -10 21 -5 3 -10 4 -10 2z"/>
<path d="M4744 936 c-11 -29 0 -51 26 -51 21 0 25 5 25 30 0 24 -5 31 -23 33
-13 2 -24 -3 -28 -12z m43 -12 c8 -21 -13 -42 -28 -27 -13 13 -5 43 11 43 6 0
13 -7 17 -16z"/>
<path d="M4856 925 c8 -44 22 -53 34 -21 14 39 12 57 -4 21 l-13 -30 -11 30
-12 30 6 -30z"/>
<path d="M4920 915 c0 -22 4 -34 10 -30 6 3 10 17 10 30 0 13 -4 27 -10 30 -6
4 -10 -8 -10 -30z"/>
<path d="M4956 943 c-10 -10 -7 -51 4 -58 6 -4 10 7 10 25 0 40 22 36 31 -6
l7 -29 1 33 c1 21 6 32 15 32 9 0 16 -13 19 -32 l4 -33 1 37 2 36 -44 0 c-24
0 -47 -2 -50 -5z"/>
<path d="M5071 932 c-13 -24 4 -52 32 -51 21 0 21 1 -3 12 l-25 11 28 4 c21 2
27 8 23 19 -3 8 -6 17 -6 19 0 13 -41 1 -49 -14z m39 -2 c0 -5 -7 -10 -15 -10
-8 0 -15 5 -15 10 0 6 7 10 15 10 8 0 15 -4 15 -10z"/>
<path d="M5140 915 c0 -22 4 -34 10 -30 6 3 10 17 10 31 0 13 5 24 10 24 6 0
10 -11 10 -24 0 -14 5 -28 11 -31 7 -5 9 5 7 26 -2 29 -7 35 -30 37 -26 3 -28
1 -28 -33z"/>
<path d="M5264 936 c-11 -29 0 -51 26 -51 21 0 25 5 25 30 0 24 -5 31 -23 33
-13 2 -24 -3 -28 -12z m43 -12 c8 -21 -13 -42 -28 -27 -13 13 -5 43 11 43 6 0
13 -7 17 -16z"/>
<path d="M5454 936 c-11 -28 1 -51 26 -53 25 -3 25 -3 3 7 -13 5 -23 16 -23
25 0 9 10 20 23 25 l22 9 -23 0 c-12 1 -25 -5 -28 -13z"/>
<path d="M5514 936 c-11 -29 0 -51 26 -51 21 0 25 5 25 30 0 24 -5 31 -23 33
-13 2 -24 -3 -28 -12z m43 -12 c8 -21 -13 -42 -28 -27 -13 13 -5 43 11 43 6 0
13 -7 17 -16z"/>
<path d="M5592 913 c1 -37 1 -37 5 -5 3 18 10 32 18 32 8 0 15 -14 18 -32 4
-32 4 -32 5 5 2 33 0 37 -23 37 -23 0 -25 -4 -23 -37z"/>
<path d="M5664 936 c-11 -29 0 -51 26 -51 21 0 25 5 25 30 0 24 -5 31 -23 33
-13 2 -24 -3 -28 -12z m43 -12 c8 -21 -13 -42 -28 -27 -13 13 -5 43 11 43 6 0
13 -7 17 -16z"/>
<path d="M5743 915 c0 -22 2 -30 4 -17 2 12 2 30 0 40 -3 9 -5 -1 -4 -23z"/>
<path d="M5768 943 c6 -3 13 -19 13 -36 l1 -32 7 29 c9 42 31 46 31 5 0 -25 3
-30 11 -22 6 6 9 23 5 36 -5 21 -12 25 -43 25 -21 0 -32 -3 -25 -5z"/>
<path d="M5850 915 c0 -22 4 -34 10 -30 6 3 10 17 10 30 0 13 -4 27 -10 30 -6
4 -10 -8 -10 -30z"/>
<path d="M5884 936 c-11 -28 1 -51 26 -53 25 -3 25 -3 3 7 -13 5 -23 16 -23
25 0 9 10 20 23 25 l22 9 -23 0 c-12 1 -25 -5 -28 -13z"/>
<path d="M5950 935 c-15 -18 -7 -43 16 -52 24 -9 46 24 33 48 -12 23 -32 24
-49 4z m40 -20 c0 -16 -6 -25 -15 -25 -9 0 -15 9 -15 25 0 16 6 25 15 25 9 0
15 -9 15 -25z"/>
</g>
</svg>
