<svg id="svg" version="1.1" xmlns="http://www.w3.org/2000/svg" xmlns:xlink="http://www.w3.org/1999/xlink" width="400" height="251.9721577726218" viewBox="0, 0, 400,251.9721577726218"><g id="svgg"><path id="path0" d="M4.033 60.113 L 4.033 118.210 14.619 118.210 L 25.205 118.210 25.205 94.518 L 25.205 70.825 50.032 70.825 L 74.858 70.825 74.858 61.122 L 74.858 51.418 50.032 51.418 L 25.205 51.418 25.205 36.548 L 25.205 21.678 52.363 21.614 L 79.521 21.550 79.587 11.989 C 79.639 4.508,79.584 2.384,79.335 2.226 C 79.160 2.115,62.146 2.022,41.525 2.020 L 4.033 2.016 4.033 60.113 M182.735 24.824 L 182.735 36.043 176.434 36.043 L 170.132 36.043 170.132 44.360 L 170.132 52.678 176.422 52.678 L 182.712 52.678 182.786 75.224 C 182.844 92.844,182.930 97.838,183.176 98.085 C 183.349 98.258,183.491 98.774,183.491 99.231 C 183.491 99.689,183.604 100.063,183.743 100.063 C 183.882 100.063,183.995 100.347,183.995 100.693 C 183.995 101.040,184.108 101.323,184.247 101.323 C 184.386 101.323,184.499 101.550,184.499 101.827 C 184.499 102.105,184.612 102.331,184.751 102.331 C 184.890 102.331,185.003 102.615,185.003 102.962 C 185.003 103.308,185.117 103.592,185.255 103.592 C 185.394 103.592,185.507 103.810,185.507 104.078 C 185.507 104.345,185.677 104.734,185.885 104.942 C 186.093 105.150,186.263 105.498,186.263 105.716 C 186.263 105.934,186.377 106.112,186.515 106.112 C 186.654 106.112,186.767 106.237,186.767 106.389 C 186.767 106.541,187.108 106.984,187.524 107.372 C 187.940 107.761,188.280 108.219,188.280 108.390 C 188.280 108.690,191.145 111.657,191.435 111.657 C 191.514 111.657,191.884 111.941,192.258 112.287 C 192.632 112.634,193.137 112.917,193.381 112.917 C 193.625 112.917,193.825 113.031,193.825 113.170 C 193.825 113.308,193.995 113.422,194.203 113.422 C 194.411 113.422,194.581 113.517,194.581 113.634 C 194.581 113.751,195.120 114.118,195.778 114.450 C 196.437 114.782,197.032 115.126,197.101 115.215 C 197.171 115.303,197.710 115.457,198.299 115.555 C 198.888 115.654,199.370 115.838,199.370 115.964 C 199.370 116.091,199.647 116.194,199.985 116.194 C 200.324 116.194,200.670 116.307,200.756 116.446 C 200.842 116.585,201.302 116.698,201.779 116.698 C 202.256 116.698,202.647 116.812,202.647 116.950 C 202.647 117.089,203.157 117.202,203.781 117.202 C 204.405 117.202,204.915 117.316,204.915 117.454 C 204.915 117.596,205.629 117.706,206.553 117.706 C 207.491 117.706,208.192 117.815,208.192 117.962 C 208.192 118.130,211.161 118.195,216.950 118.151 L 225.709 118.084 225.775 109.578 L 225.842 101.071 218.655 101.071 C 214.032 101.071,211.468 100.981,211.468 100.819 C 211.468 100.681,211.014 100.567,210.460 100.567 C 209.905 100.567,209.452 100.454,209.452 100.315 C 209.452 100.176,209.168 100.063,208.822 100.063 C 208.475 100.063,208.192 99.950,208.192 99.811 C 208.192 99.672,207.965 99.559,207.687 99.559 C 207.410 99.559,207.183 99.470,207.183 99.361 C 207.183 99.252,206.815 98.947,206.364 98.682 C 205.319 98.068,204.915 97.665,204.915 97.238 C 204.915 97.051,204.688 96.734,204.411 96.534 C 204.134 96.335,203.907 96.026,203.907 95.849 C 203.907 95.671,203.793 95.526,203.655 95.526 C 203.516 95.526,203.403 95.195,203.403 94.791 C 203.403 94.387,203.261 94.009,203.088 93.951 C 202.840 93.868,202.757 89.453,202.700 73.262 L 202.627 52.678 213.979 52.678 L 225.331 52.678 225.331 44.360 L 225.331 36.043 213.991 36.043 L 202.652 36.043 202.586 24.890 L 202.520 13.737 192.628 13.671 L 182.735 13.605 182.735 24.824 M121.487 34.279 C 121.487 34.429,120.521 34.531,119.093 34.531 C 117.664 34.531,116.698 34.632,116.698 34.783 C 116.698 34.921,116.074 35.035,115.312 35.035 C 114.549 35.035,113.926 35.148,113.926 35.287 C 113.926 35.425,113.415 35.539,112.791 35.539 C 112.168 35.539,111.657 35.652,111.657 35.791 C 111.657 35.929,111.317 36.043,110.901 36.043 C 110.485 36.043,110.145 36.156,110.145 36.295 C 110.145 36.434,109.748 36.547,109.263 36.547 C 108.778 36.547,108.381 36.653,108.381 36.784 C 108.381 36.914,107.870 37.097,107.246 37.190 C 106.623 37.284,106.112 37.461,106.112 37.584 C 106.112 37.707,105.885 37.807,105.608 37.807 C 105.331 37.807,105.104 37.921,105.104 38.059 C 105.104 38.198,104.877 38.311,104.600 38.311 C 104.323 38.311,104.096 38.425,104.096 38.563 C 104.096 38.702,103.926 38.815,103.718 38.815 C 103.510 38.815,103.340 38.929,103.340 39.067 C 103.340 39.206,103.113 39.319,102.836 39.319 C 102.558 39.319,102.331 39.433,102.331 39.572 C 102.331 39.710,102.101 39.824,101.819 39.824 C 101.538 39.824,101.242 39.994,101.162 40.202 C 101.083 40.410,100.828 40.580,100.596 40.580 C 100.364 40.580,100.011 40.807,99.811 41.084 C 99.611 41.361,99.335 41.588,99.197 41.588 C 98.930 41.588,98.741 41.757,96.462 44.036 C 94.183 46.315,94.014 46.504,94.014 46.771 C 94.014 46.909,93.787 47.185,93.510 47.385 C 93.233 47.585,93.006 47.950,93.006 48.197 C 93.006 48.443,92.894 48.645,92.758 48.645 C 92.622 48.645,92.440 48.929,92.353 49.275 C 92.266 49.622,92.094 49.905,91.970 49.905 C 91.847 49.905,91.745 50.132,91.745 50.410 C 91.745 50.687,91.632 50.914,91.493 50.914 C 91.355 50.914,91.241 51.197,91.241 51.544 C 91.241 51.890,91.128 52.174,90.989 52.174 C 90.851 52.174,90.737 52.401,90.737 52.678 C 90.737 52.955,90.624 53.182,90.485 53.182 C 90.347 53.182,90.233 53.513,90.233 53.917 C 90.233 54.322,90.122 54.690,89.987 54.736 C 89.851 54.783,89.664 55.813,89.572 57.026 C 89.479 58.239,89.306 59.231,89.188 59.231 C 89.070 59.231,88.973 60.592,88.973 62.256 L 88.973 65.280 98.425 65.280 L 107.876 65.280 107.876 64.272 C 107.876 63.718,107.990 63.264,108.129 63.264 C 108.267 63.264,108.381 62.640,108.381 61.878 C 108.381 61.115,108.494 60.491,108.633 60.491 C 108.771 60.491,108.885 60.278,108.885 60.016 C 108.885 59.755,109.054 59.216,109.261 58.819 C 109.468 58.422,109.638 57.924,109.639 57.712 C 109.640 57.500,109.868 57.163,110.145 56.963 C 110.422 56.763,110.649 56.511,110.649 56.403 C 110.649 56.079,112.489 54.337,113.233 53.956 C 113.614 53.761,113.926 53.507,113.926 53.392 C 113.926 53.276,114.152 53.182,114.430 53.182 C 114.707 53.182,114.934 53.069,114.934 52.930 C 114.934 52.791,115.104 52.678,115.312 52.678 C 115.520 52.678,115.690 52.565,115.690 52.426 C 115.690 52.287,116.030 52.174,116.446 52.174 C 116.862 52.174,117.202 52.060,117.202 51.922 C 117.202 51.783,117.590 51.670,118.063 51.670 C 118.537 51.670,118.972 51.528,119.030 51.355 C 119.110 51.115,120.535 51.040,125.016 51.040 C 129.497 51.040,130.922 51.115,131.002 51.355 C 131.060 51.528,131.438 51.670,131.842 51.670 C 132.246 51.670,132.577 51.783,132.577 51.922 C 132.577 52.060,132.861 52.174,133.207 52.174 C 133.554 52.174,133.837 52.287,133.837 52.426 C 133.837 52.565,134.064 52.678,134.342 52.678 C 134.619 52.678,134.846 52.767,134.846 52.876 C 134.846 52.984,135.164 53.261,135.552 53.491 C 136.358 53.967,139.130 56.572,139.130 56.853 C 139.130 57.175,140.489 59.857,140.696 59.945 C 140.806 59.992,140.895 60.524,140.895 61.128 C 140.895 61.732,141.008 62.296,141.147 62.382 C 141.297 62.475,141.399 64.107,141.399 66.429 L 141.399 70.321 126.780 70.321 C 117.202 70.321,112.161 70.408,112.161 70.573 C 112.161 70.716,111.447 70.825,110.523 70.825 C 109.599 70.825,108.885 70.935,108.885 71.078 C 108.885 71.216,108.374 71.330,107.750 71.330 C 107.127 71.330,106.616 71.427,106.616 71.546 C 106.616 71.666,105.976 71.829,105.194 71.910 C 104.412 71.991,103.652 72.177,103.505 72.323 C 103.359 72.470,103.057 72.590,102.835 72.590 C 102.312 72.590,101.076 73.165,101.073 73.409 C 101.072 73.513,100.844 73.598,100.567 73.598 C 100.290 73.598,100.063 73.711,100.063 73.850 C 100.063 73.989,99.836 74.102,99.559 74.102 C 99.282 74.102,99.055 74.216,99.055 74.354 C 99.055 74.493,98.885 74.606,98.677 74.606 C 98.469 74.606,98.299 74.717,98.299 74.853 C 98.299 74.989,97.987 75.178,97.606 75.272 C 97.224 75.366,96.729 75.652,96.505 75.907 C 96.281 76.162,96.022 76.371,95.929 76.371 C 95.566 76.371,91.241 80.673,91.241 81.035 C 91.241 81.115,91.014 81.424,90.737 81.722 C 90.460 82.019,90.233 82.411,90.233 82.593 C 90.233 82.775,90.132 82.924,90.009 82.924 C 89.886 82.924,89.711 83.321,89.620 83.806 C 89.529 84.291,89.346 84.688,89.214 84.688 C 89.081 84.688,88.973 84.915,88.973 85.192 C 88.973 85.469,88.859 85.696,88.721 85.696 C 88.582 85.696,88.469 86.037,88.469 86.452 C 88.469 86.868,88.355 87.209,88.217 87.209 C 88.078 87.209,87.965 87.606,87.965 88.091 C 87.965 88.576,87.851 88.973,87.713 88.973 C 87.574 88.973,87.461 89.597,87.461 90.359 C 87.461 91.122,87.347 91.745,87.209 91.745 C 87.052 91.745,86.957 93.169,86.957 95.511 C 86.957 97.750,87.059 99.340,87.209 99.433 C 87.347 99.519,87.461 100.092,87.461 100.708 C 87.461 101.324,87.574 101.827,87.713 101.827 C 87.851 101.827,87.965 102.218,87.965 102.695 C 87.965 103.172,88.078 103.632,88.217 103.718 C 88.355 103.803,88.469 104.150,88.469 104.489 C 88.469 104.827,88.582 105.104,88.721 105.104 C 88.859 105.104,88.973 105.331,88.973 105.608 C 88.973 105.885,89.081 106.112,89.214 106.112 C 89.346 106.112,89.529 106.509,89.620 106.994 C 89.711 107.480,89.886 107.876,90.009 107.876 C 90.132 107.876,90.233 108.103,90.233 108.381 C 90.233 108.658,90.347 108.885,90.485 108.885 C 90.624 108.885,90.737 109.002,90.737 109.145 C 90.737 109.288,91.134 109.803,91.619 110.288 C 92.105 110.773,92.502 111.277,92.502 111.409 C 92.502 111.812,94.199 113.422,94.623 113.422 C 94.842 113.422,95.022 113.518,95.022 113.635 C 95.022 113.980,95.936 114.934,96.267 114.934 C 96.434 114.934,96.740 115.104,96.948 115.312 C 97.156 115.520,97.545 115.690,97.813 115.690 C 98.080 115.690,98.299 115.803,98.299 115.942 C 98.299 116.081,98.469 116.194,98.677 116.194 C 98.885 116.194,99.055 116.307,99.055 116.446 C 99.055 116.585,99.282 116.698,99.559 116.698 C 99.836 116.698,100.063 116.812,100.063 116.950 C 100.063 117.089,100.290 117.202,100.567 117.202 C 100.844 117.202,101.071 117.316,101.071 117.454 C 101.071 117.593,101.355 117.706,101.701 117.706 C 102.048 117.706,102.331 117.820,102.331 117.958 C 102.331 118.097,102.662 118.210,103.067 118.210 C 103.471 118.210,103.849 118.352,103.907 118.526 C 103.988 118.769,105.905 118.841,112.359 118.841 C 118.700 118.841,120.782 118.765,121.021 118.526 C 121.194 118.352,121.703 118.210,122.153 118.210 C 122.602 118.210,123.040 118.097,123.125 117.958 C 123.211 117.820,123.558 117.706,123.896 117.706 C 124.235 117.706,124.512 117.593,124.512 117.454 C 124.512 117.316,124.852 117.202,125.268 117.202 C 125.684 117.202,126.024 117.089,126.024 116.950 C 126.024 116.812,126.251 116.698,126.528 116.698 C 126.805 116.698,127.032 116.585,127.032 116.446 C 127.032 116.307,127.316 116.194,127.662 116.194 C 128.009 116.194,128.292 116.093,128.292 115.970 C 128.292 115.847,128.689 115.672,129.175 115.581 C 129.660 115.490,130.057 115.307,130.057 115.174 C 130.057 115.042,130.284 114.934,130.561 114.934 C 130.838 114.934,131.065 114.820,131.065 114.682 C 131.065 114.543,131.292 114.430,131.569 114.430 C 131.846 114.430,132.073 114.316,132.073 114.178 C 132.073 114.039,132.243 113.926,132.451 113.926 C 132.659 113.926,132.829 113.812,132.829 113.674 C 132.829 113.535,133.056 113.422,133.333 113.422 C 133.611 113.422,133.837 113.308,133.837 113.170 C 133.837 113.031,134.007 112.917,134.214 112.917 C 134.739 112.917,136.610 112.084,136.610 111.850 C 136.610 111.744,136.812 111.657,137.058 111.657 C 137.305 111.657,137.670 111.430,137.870 111.153 C 138.070 110.876,138.379 110.649,138.556 110.649 C 138.733 110.649,138.878 110.536,138.878 110.397 C 138.878 110.258,139.077 110.144,139.319 110.143 C 139.562 110.143,140.085 109.972,140.482 109.765 C 140.880 109.558,141.248 109.389,141.302 109.389 C 141.355 109.389,141.399 111.374,141.399 113.800 L 141.399 118.210 151.103 118.210 L 160.807 118.210 160.807 90.611 C 160.807 72.380,160.721 63.012,160.555 63.012 C 160.404 63.012,160.302 62.046,160.302 60.618 C 160.302 59.189,160.201 58.223,160.050 58.223 C 159.912 58.223,159.798 57.826,159.798 57.341 C 159.798 56.856,159.700 56.459,159.579 56.459 C 159.458 56.459,159.283 55.782,159.189 54.954 C 159.096 54.127,158.911 53.383,158.779 53.301 C 158.646 53.219,158.538 52.955,158.538 52.713 C 158.538 52.162,157.971 50.918,157.719 50.916 C 157.615 50.915,157.530 50.687,157.530 50.410 C 157.530 50.132,157.417 49.905,157.278 49.905 C 157.139 49.905,157.026 49.679,157.026 49.401 C 157.026 49.124,156.912 48.897,156.774 48.897 C 156.635 48.897,156.522 48.735,156.522 48.537 C 156.522 48.339,156.380 48.027,156.207 47.844 C 156.033 47.661,155.732 47.201,155.536 46.822 C 155.341 46.443,154.972 46.067,154.717 45.986 C 154.462 45.905,154.253 45.665,154.253 45.452 C 154.253 45.084,150.959 41.588,150.613 41.588 C 150.523 41.588,150.186 41.324,149.864 41.002 C 149.541 40.680,148.894 40.258,148.426 40.066 C 147.957 39.874,147.354 39.514,147.085 39.266 C 146.817 39.018,146.448 38.815,146.266 38.815 C 146.084 38.815,145.936 38.702,145.936 38.563 C 145.936 38.425,145.709 38.311,145.432 38.311 C 145.154 38.311,144.928 38.226,144.928 38.121 C 144.928 37.835,143.681 37.345,142.470 37.155 C 141.881 37.062,141.399 36.888,141.399 36.767 C 141.399 36.646,141.059 36.547,140.643 36.547 C 140.227 36.547,139.887 36.434,139.887 36.295 C 139.887 36.156,139.546 36.043,139.130 36.043 C 138.715 36.043,138.374 35.929,138.374 35.791 C 138.374 35.652,137.864 35.539,137.240 35.539 C 136.616 35.539,136.106 35.425,136.106 35.287 C 136.106 35.148,135.482 35.035,134.720 35.035 C 133.957 35.035,133.333 34.921,133.333 34.783 C 133.333 34.633,132.414 34.531,131.080 34.531 C 129.840 34.531,128.756 34.417,128.670 34.279 C 128.579 34.130,127.072 34.026,125.001 34.026 C 122.826 34.026,121.487 34.123,121.487 34.279 M265.658 34.783 C 265.658 34.925,264.944 35.035,264.020 35.035 C 263.096 35.035,262.382 35.145,262.382 35.287 C 262.382 35.425,261.871 35.539,261.248 35.539 C 260.624 35.539,260.113 35.652,260.113 35.791 C 260.113 35.929,259.716 36.043,259.231 36.043 C 258.746 36.043,258.349 36.156,258.349 36.295 C 258.349 36.434,258.009 36.547,257.593 36.547 C 257.177 36.547,256.837 36.647,256.837 36.770 C 256.837 36.893,256.323 37.071,255.695 37.165 C 254.596 37.330,252.515 38.237,252.342 38.626 C 252.296 38.730,252.041 38.815,251.775 38.815 C 251.509 38.815,251.292 38.929,251.292 39.067 C 251.292 39.206,251.065 39.319,250.788 39.319 C 250.510 39.319,250.284 39.421,250.284 39.544 C 250.284 39.668,250.000 39.840,249.653 39.927 C 249.307 40.014,249.023 40.196,249.023 40.332 C 249.023 40.468,248.822 40.580,248.575 40.580 C 248.328 40.580,247.963 40.807,247.763 41.084 C 247.563 41.361,247.307 41.588,247.194 41.588 C 247.003 41.588,246.723 41.818,245.125 43.289 C 244.787 43.601,244.442 43.856,244.360 43.856 C 244.045 43.856,242.974 45.113,242.974 45.483 C 242.974 45.697,242.866 45.873,242.734 45.873 C 242.513 45.873,241.815 46.531,241.021 47.488 C 240.848 47.697,240.706 48.015,240.706 48.196 C 240.706 48.376,240.479 48.666,240.202 48.839 C 239.924 49.012,239.698 49.271,239.698 49.414 C 239.698 49.557,239.476 49.912,239.206 50.202 C 238.936 50.492,238.643 51.055,238.556 51.452 C 238.469 51.849,238.293 52.174,238.165 52.174 C 238.038 52.174,237.933 52.401,237.933 52.678 C 237.933 52.955,237.820 53.182,237.681 53.182 C 237.543 53.182,237.429 53.409,237.429 53.686 C 237.429 53.963,237.316 54.190,237.177 54.190 C 237.038 54.190,236.925 54.474,236.925 54.820 C 236.925 55.167,236.812 55.451,236.673 55.451 C 236.534 55.451,236.421 55.791,236.421 56.207 C 236.421 56.623,236.320 56.963,236.197 56.963 C 236.075 56.963,235.910 57.275,235.831 57.656 C 235.319 60.131,235.189 61.002,235.176 62.052 C 235.167 62.702,235.047 63.304,234.909 63.390 C 234.595 63.584,234.558 92.502,234.871 92.502 C 234.990 92.502,235.162 93.491,235.255 94.700 C 235.348 95.909,235.535 97.010,235.671 97.145 C 235.806 97.280,235.917 97.702,235.917 98.082 C 235.917 98.462,236.030 98.843,236.169 98.929 C 236.307 99.014,236.421 99.305,236.421 99.574 C 236.421 99.843,236.534 100.063,236.673 100.063 C 236.812 100.063,236.925 100.347,236.925 100.693 C 236.925 101.040,237.038 101.323,237.177 101.323 C 237.316 101.323,237.429 101.550,237.429 101.827 C 237.429 102.105,237.543 102.331,237.681 102.331 C 237.820 102.331,237.933 102.558,237.933 102.836 C 237.933 103.113,238.034 103.340,238.158 103.340 C 238.282 103.340,238.454 103.623,238.541 103.970 C 238.628 104.316,238.810 104.600,238.946 104.600 C 239.082 104.600,239.193 104.802,239.193 105.048 C 239.193 105.295,239.420 105.660,239.698 105.860 C 239.975 106.060,240.202 106.317,240.202 106.431 C 240.202 106.546,240.457 106.916,240.769 107.255 C 242.207 108.817,242.470 109.129,242.470 109.272 C 242.470 109.575,243.199 110.145,243.586 110.145 C 243.804 110.145,243.982 110.246,243.982 110.370 C 243.982 110.756,245.335 112.066,246.191 112.508 C 246.640 112.741,247.007 113.041,247.007 113.176 C 247.007 113.311,247.209 113.422,247.455 113.422 C 247.702 113.422,248.067 113.648,248.267 113.926 C 248.467 114.203,248.832 114.430,249.079 114.430 C 249.326 114.430,249.527 114.543,249.527 114.682 C 249.527 114.820,249.698 114.934,249.905 114.934 C 250.113 114.934,250.284 115.037,250.284 115.164 C 250.284 115.290,250.737 115.470,251.292 115.564 C 251.846 115.658,252.300 115.838,252.300 115.964 C 252.300 116.091,252.527 116.194,252.804 116.194 C 253.081 116.194,253.308 116.307,253.308 116.446 C 253.308 116.585,253.592 116.698,253.938 116.698 C 254.285 116.698,254.568 116.812,254.568 116.950 C 254.568 117.089,254.845 117.202,255.184 117.202 C 255.522 117.202,255.869 117.316,255.955 117.454 C 256.040 117.593,256.387 117.706,256.726 117.706 C 257.064 117.706,257.341 117.820,257.341 117.958 C 257.341 118.097,257.715 118.210,258.173 118.210 C 258.630 118.210,259.112 118.317,259.244 118.448 C 259.376 118.578,260.649 118.765,262.075 118.862 C 263.500 118.960,264.726 119.137,264.799 119.255 C 264.973 119.537,277.757 119.537,277.757 119.256 C 277.757 119.138,278.976 118.963,280.466 118.867 C 281.957 118.771,283.214 118.584,283.260 118.452 C 283.306 118.319,283.731 118.210,284.205 118.210 C 284.679 118.210,285.066 118.097,285.066 117.958 C 285.066 117.820,285.520 117.706,286.074 117.706 C 286.629 117.706,287.083 117.593,287.083 117.454 C 287.083 117.316,287.366 117.202,287.713 117.202 C 288.059 117.202,288.343 117.089,288.343 116.950 C 288.343 116.812,288.683 116.698,289.099 116.698 C 289.515 116.698,289.855 116.585,289.855 116.446 C 289.855 116.307,290.025 116.194,290.233 116.194 C 290.441 116.194,290.611 116.091,290.611 115.964 C 290.611 115.838,291.065 115.658,291.619 115.564 C 292.174 115.470,292.628 115.290,292.628 115.164 C 292.628 115.037,292.798 114.934,293.006 114.934 C 293.214 114.934,293.384 114.820,293.384 114.682 C 293.384 114.543,293.611 114.430,293.888 114.430 C 294.165 114.430,294.392 114.316,294.392 114.178 C 294.392 114.039,294.594 113.926,294.840 113.926 C 295.087 113.926,295.452 113.699,295.652 113.422 C 295.852 113.144,296.155 112.917,296.326 112.917 C 296.498 112.917,296.921 112.634,297.268 112.287 C 297.614 111.941,297.998 111.657,298.121 111.657 C 298.243 111.657,298.694 111.289,299.123 110.838 C 299.552 110.388,300.244 109.735,300.661 109.389 C 301.078 109.042,301.612 108.336,301.848 107.819 C 302.084 107.302,302.488 106.813,302.745 106.731 C 303.003 106.649,303.214 106.388,303.214 106.151 C 303.214 105.914,303.440 105.556,303.718 105.356 C 303.995 105.156,304.222 104.791,304.222 104.544 C 304.222 104.298,304.308 104.096,304.414 104.096 C 304.674 104.096,305.482 102.198,305.482 101.588 C 305.482 101.320,305.595 101.031,305.734 100.945 C 305.873 100.860,305.986 100.513,305.986 100.174 C 305.986 99.836,306.100 99.559,306.238 99.559 C 306.377 99.559,306.490 99.049,306.490 98.425 C 306.490 97.801,306.604 97.290,306.742 97.290 C 306.897 97.290,306.994 96.030,306.994 94.014 L 306.994 90.737 297.669 90.737 L 288.343 90.737 288.343 91.857 C 288.343 92.472,288.244 93.037,288.124 93.111 C 288.004 93.186,287.830 93.907,287.739 94.714 C 287.621 95.754,287.429 96.285,287.076 96.539 C 286.802 96.736,286.578 97.048,286.578 97.233 C 286.578 97.697,283.657 100.567,283.184 100.567 C 282.971 100.567,282.798 100.681,282.798 100.819 C 282.798 100.958,282.628 101.071,282.420 101.071 C 282.212 101.071,282.042 101.178,282.042 101.308 C 282.042 101.438,281.530 101.621,280.904 101.715 C 280.279 101.809,279.705 101.986,279.629 102.108 C 279.553 102.231,279.214 102.331,278.876 102.331 C 278.538 102.331,278.261 102.445,278.261 102.583 C 278.261 102.722,277.637 102.836,276.875 102.836 C 276.112 102.836,275.488 102.949,275.488 103.088 C 275.488 103.245,273.934 103.340,271.330 103.340 C 268.725 103.340,267.171 103.245,267.171 103.088 C 267.171 102.949,266.717 102.836,266.163 102.836 C 265.608 102.836,265.154 102.722,265.154 102.583 C 265.154 102.445,264.757 102.331,264.272 102.331 C 263.787 102.331,263.390 102.228,263.390 102.102 C 263.390 101.975,262.909 101.790,262.320 101.691 C 261.732 101.591,261.066 101.298,260.841 101.039 C 260.616 100.779,260.272 100.567,260.076 100.567 C 259.881 100.567,259.557 100.340,259.357 100.063 C 259.157 99.786,258.897 99.559,258.780 99.559 C 258.662 99.559,258.423 99.417,258.249 99.244 C 258.076 99.071,257.575 98.645,257.135 98.299 C 256.696 97.952,256.336 97.470,256.335 97.227 C 256.334 96.985,256.221 96.786,256.085 96.786 C 255.949 96.786,255.767 96.503,255.680 96.156 C 255.593 95.810,255.421 95.526,255.297 95.526 C 255.174 95.526,255.072 95.299,255.072 95.022 C 255.072 94.745,254.959 94.518,254.820 94.518 C 254.682 94.518,254.568 94.291,254.568 94.014 C 254.568 93.737,254.455 93.510,254.316 93.510 C 254.178 93.510,254.064 93.113,254.064 92.628 C 254.064 92.142,253.951 91.745,253.812 91.745 C 253.674 91.745,253.560 91.235,253.560 90.611 C 253.560 89.987,253.447 89.477,253.308 89.477 C 253.155 89.477,253.056 88.343,253.056 86.578 L 253.056 83.680 280.277 83.680 L 307.498 83.680 307.498 74.480 C 307.498 68.515,307.410 65.280,307.246 65.280 C 307.100 65.280,306.994 64.445,306.994 63.279 C 306.994 62.178,306.881 61.207,306.742 61.122 C 306.604 61.036,306.490 60.462,306.490 59.846 C 306.490 59.231,306.377 58.727,306.238 58.727 C 306.100 58.727,305.986 58.444,305.986 58.097 C 305.986 57.750,305.887 57.467,305.766 57.467 C 305.645 57.467,305.489 56.876,305.420 56.154 C 305.351 55.432,305.166 54.799,305.010 54.747 C 304.854 54.695,304.726 54.446,304.726 54.193 C 304.726 53.695,303.710 51.596,303.403 51.460 C 303.299 51.414,303.214 51.183,303.214 50.948 C 303.214 50.713,302.987 50.357,302.710 50.158 C 302.432 49.958,302.205 49.589,302.205 49.338 C 302.205 49.087,302.035 48.816,301.827 48.736 C 301.619 48.657,301.449 48.422,301.449 48.215 C 301.449 48.009,301.109 47.521,300.693 47.133 C 300.277 46.744,299.937 46.354,299.937 46.265 C 299.937 45.883,296.718 42.596,296.344 42.596 C 296.213 42.596,295.789 42.256,295.400 41.840 C 295.012 41.424,294.554 41.084,294.383 41.084 C 294.213 41.084,293.890 40.873,293.665 40.616 C 293.441 40.358,293.003 40.067,292.691 39.969 C 292.379 39.870,292.124 39.684,292.124 39.555 C 292.124 39.425,291.906 39.319,291.640 39.319 C 291.375 39.319,291.120 39.234,291.073 39.130 C 290.937 38.823,288.838 37.807,288.340 37.807 C 288.087 37.807,287.840 37.686,287.791 37.539 C 287.742 37.391,287.222 37.206,286.636 37.128 C 286.050 37.049,285.570 36.886,285.570 36.766 C 285.570 36.645,285.293 36.547,284.955 36.547 C 284.617 36.547,284.270 36.434,284.184 36.295 C 284.098 36.156,283.638 36.043,283.161 36.043 C 282.684 36.043,282.294 35.929,282.294 35.791 C 282.294 35.652,281.783 35.539,281.159 35.539 C 280.536 35.539,280.025 35.425,280.025 35.287 C 280.025 35.141,279.227 35.035,278.135 35.035 C 277.043 35.035,276.244 34.928,276.244 34.783 C 276.244 34.623,274.312 34.531,270.951 34.531 C 267.591 34.531,265.658 34.623,265.658 34.783 M352.489 34.783 C 352.403 34.921,351.659 35.035,350.836 35.035 C 350.006 35.035,349.338 35.147,349.338 35.287 C 349.338 35.425,348.771 35.539,348.078 35.539 C 347.385 35.539,346.818 35.652,346.818 35.791 C 346.818 35.929,346.421 36.043,345.936 36.043 C 345.451 36.043,345.054 36.156,345.054 36.295 C 345.054 36.434,344.713 36.547,344.297 36.547 C 343.882 36.547,343.541 36.646,343.541 36.767 C 343.541 36.888,343.059 37.062,342.470 37.155 C 341.259 37.345,340.013 37.835,340.013 38.121 C 340.013 38.226,339.786 38.311,339.509 38.311 C 339.231 38.311,339.004 38.425,339.004 38.563 C 339.004 38.702,338.778 38.815,338.500 38.815 C 338.223 38.815,337.996 38.929,337.996 39.067 C 337.996 39.206,337.826 39.319,337.618 39.319 C 337.410 39.319,337.240 39.433,337.240 39.572 C 337.240 39.710,337.021 39.824,336.754 39.824 C 336.487 39.824,336.098 39.994,335.890 40.202 C 335.682 40.410,335.391 40.580,335.244 40.580 C 335.096 40.580,334.834 40.807,334.661 41.084 C 334.488 41.361,334.195 41.588,334.011 41.588 C 333.601 41.588,328.922 46.232,328.922 46.640 C 328.922 46.800,328.582 47.249,328.166 47.637 C 327.750 48.026,327.410 48.468,327.410 48.620 C 327.410 48.773,327.297 48.897,327.158 48.897 C 327.020 48.897,326.906 49.124,326.906 49.401 C 326.906 49.679,326.813 49.905,326.698 49.905 C 326.433 49.905,325.142 52.686,325.142 53.257 C 325.142 53.493,325.028 53.686,324.890 53.686 C 324.751 53.686,324.638 53.970,324.638 54.316 C 324.638 54.663,324.524 54.946,324.386 54.946 C 324.247 54.946,324.134 55.287,324.134 55.703 C 324.134 56.118,324.020 56.459,323.882 56.459 C 323.743 56.459,323.629 56.833,323.629 57.290 C 323.629 57.748,323.488 58.264,323.314 58.437 C 323.068 58.684,322.999 62.788,322.999 77.253 C 322.999 91.717,323.068 95.822,323.314 96.068 C 323.488 96.241,323.629 96.757,323.629 97.215 C 323.629 97.672,323.743 98.047,323.882 98.047 C 324.020 98.047,324.134 98.387,324.134 98.803 C 324.134 99.219,324.247 99.559,324.386 99.559 C 324.524 99.559,324.638 99.842,324.638 100.189 C 324.638 100.536,324.751 100.819,324.890 100.819 C 325.028 100.819,325.142 101.046,325.142 101.323 C 325.142 101.601,325.255 101.827,325.394 101.827 C 325.532 101.827,325.646 102.009,325.646 102.230 C 325.646 102.821,326.432 104.410,326.956 104.881 C 327.206 105.106,327.410 105.449,327.410 105.645 C 327.410 105.841,327.637 106.164,327.914 106.364 C 328.192 106.564,328.418 106.821,328.418 106.935 C 328.418 107.156,328.709 107.538,329.616 108.507 C 329.928 108.841,330.183 109.181,330.183 109.263 C 330.183 109.454,331.374 110.649,331.564 110.649 C 331.643 110.649,332.219 111.159,332.843 111.783 C 333.466 112.407,334.144 112.917,334.348 112.917 C 334.552 112.917,334.720 113.012,334.720 113.127 C 334.720 113.242,335.032 113.497,335.413 113.692 C 335.794 113.888,336.289 114.247,336.513 114.491 C 336.738 114.735,337.106 114.934,337.333 114.934 C 337.559 114.934,337.744 115.042,337.744 115.174 C 337.744 115.307,338.141 115.490,338.626 115.581 C 339.112 115.672,339.509 115.847,339.509 115.970 C 339.509 116.093,339.792 116.194,340.139 116.194 C 340.485 116.194,340.769 116.307,340.769 116.446 C 340.769 116.585,340.996 116.698,341.273 116.698 C 341.550 116.698,341.777 116.812,341.777 116.950 C 341.777 117.089,342.117 117.202,342.533 117.202 C 342.949 117.202,343.289 117.316,343.289 117.454 C 343.289 117.593,343.573 117.706,343.919 117.706 C 344.266 117.706,344.549 117.820,344.549 117.958 C 344.549 118.097,344.924 118.210,345.381 118.210 C 345.839 118.210,346.321 118.318,346.453 118.451 C 346.585 118.583,347.912 118.769,349.402 118.866 C 350.892 118.962,352.111 119.138,352.111 119.256 C 352.111 119.374,354.890 119.471,358.286 119.471 C 361.682 119.471,364.461 119.374,364.461 119.256 C 364.461 119.138,365.681 118.963,367.171 118.867 C 368.661 118.771,369.918 118.584,369.964 118.452 C 370.011 118.319,370.429 118.210,370.895 118.210 C 371.360 118.210,371.811 118.097,371.897 117.958 C 371.982 117.820,372.329 117.706,372.668 117.706 C 373.006 117.706,373.283 117.593,373.283 117.454 C 373.283 117.316,373.623 117.202,374.039 117.202 C 374.455 117.202,374.795 117.089,374.795 116.950 C 374.795 116.812,375.079 116.698,375.425 116.698 C 375.772 116.698,376.055 116.585,376.055 116.446 C 376.055 116.307,376.282 116.194,376.560 116.194 C 376.837 116.194,377.064 116.093,377.064 115.970 C 377.064 115.847,377.461 115.672,377.946 115.581 C 378.431 115.490,378.828 115.307,378.828 115.174 C 378.828 115.042,379.055 114.934,379.332 114.934 C 379.609 114.934,379.836 114.820,379.836 114.682 C 379.836 114.543,379.981 114.430,380.159 114.430 C 380.336 114.430,380.645 114.203,380.844 113.926 C 381.044 113.648,381.361 113.422,381.548 113.422 C 381.735 113.422,382.047 113.280,382.240 113.106 C 382.987 112.436,383.349 112.161,383.483 112.161 C 383.800 112.161,387.650 108.186,387.652 107.856 C 387.653 107.659,387.993 107.230,388.408 106.903 C 388.823 106.575,389.162 106.150,389.162 105.958 C 389.162 105.765,389.275 105.608,389.414 105.608 C 389.553 105.608,389.666 105.389,389.666 105.122 C 389.666 104.855,389.836 104.466,390.044 104.258 C 390.252 104.050,390.422 103.758,390.422 103.610 C 390.422 103.461,390.536 103.340,390.674 103.340 C 390.813 103.340,390.926 102.999,390.926 102.583 C 390.926 102.168,391.011 101.826,391.115 101.825 C 391.366 101.823,391.934 100.580,391.934 100.034 C 391.934 99.796,392.045 99.563,392.180 99.517 C 392.314 99.471,392.501 98.611,392.594 97.606 C 392.687 96.601,392.860 95.778,392.979 95.778 C 393.098 95.778,393.195 95.154,393.195 94.392 C 393.195 93.629,393.308 93.006,393.447 93.006 C 393.602 93.006,393.699 91.703,393.699 89.603 L 393.699 86.200 384.247 86.200 L 374.795 86.200 374.795 88.091 C 374.795 89.183,374.689 89.981,374.543 89.981 C 374.405 89.981,374.291 90.491,374.291 91.115 C 374.291 91.739,374.178 92.250,374.039 92.250 C 373.900 92.250,373.787 92.526,373.787 92.865 C 373.787 93.203,373.674 93.550,373.535 93.636 C 373.396 93.721,373.283 94.068,373.283 94.407 C 373.283 94.745,373.182 95.022,373.058 95.022 C 372.935 95.022,372.762 95.306,372.675 95.652 C 372.588 95.999,372.406 96.282,372.270 96.282 C 372.134 96.282,372.023 96.456,372.023 96.668 C 372.023 97.141,369.571 99.559,369.092 99.559 C 368.902 99.559,368.746 99.651,368.746 99.764 C 368.746 99.877,368.349 100.125,367.864 100.315 C 367.379 100.505,366.982 100.753,366.982 100.866 C 366.982 100.979,366.764 101.071,366.499 101.071 C 366.233 101.071,365.978 101.182,365.932 101.316 C 365.885 101.451,365.025 101.638,364.020 101.731 C 363.015 101.824,362.193 101.997,362.193 102.116 C 362.193 102.400,354.449 102.397,354.274 102.113 C 354.199 101.992,353.455 101.816,352.621 101.722 C 351.786 101.628,351.103 101.442,351.103 101.311 C 351.103 101.179,350.762 101.071,350.347 101.071 C 349.931 101.071,349.590 100.958,349.590 100.819 C 349.590 100.681,349.420 100.567,349.212 100.567 C 349.004 100.567,348.834 100.473,348.834 100.358 C 348.834 100.242,348.522 99.987,348.141 99.791 C 347.390 99.403,344.549 96.679,344.549 96.346 C 344.549 96.233,344.323 95.978,344.045 95.778 C 343.768 95.578,343.541 95.213,343.541 94.966 C 343.541 94.720,343.441 94.518,343.318 94.518 C 343.196 94.518,343.017 93.894,342.922 93.132 C 342.827 92.369,342.644 91.745,342.515 91.745 C 342.386 91.745,342.281 91.235,342.281 90.611 C 342.281 89.987,342.168 89.477,342.029 89.477 C 341.864 89.477,341.777 85.192,341.777 77.127 C 341.777 69.061,341.864 64.776,342.029 64.776 C 342.168 64.776,342.281 64.273,342.281 63.657 C 342.281 63.041,342.381 62.476,342.504 62.400 C 342.627 62.324,342.804 61.750,342.898 61.125 C 342.991 60.499,343.175 59.987,343.305 59.987 C 343.435 59.987,343.541 59.817,343.541 59.609 C 343.541 59.401,343.655 59.231,343.793 59.231 C 343.932 59.231,344.045 59.004,344.045 58.727 C 344.045 58.450,344.159 58.223,344.297 58.223 C 344.436 58.223,344.549 58.073,344.549 57.889 C 344.549 57.487,347.454 54.442,347.837 54.442 C 347.986 54.442,348.615 54.159,349.236 53.812 C 349.857 53.466,350.531 53.182,350.734 53.182 C 350.937 53.182,351.103 53.069,351.103 52.930 C 351.103 52.791,351.386 52.678,351.733 52.678 C 352.079 52.678,352.363 52.565,352.363 52.426 C 352.363 52.287,352.873 52.174,353.497 52.174 C 354.121 52.174,354.631 52.060,354.631 51.922 C 354.631 51.766,355.976 51.670,358.160 51.670 C 360.344 51.670,361.689 51.766,361.689 51.922 C 361.689 52.060,362.192 52.174,362.808 52.174 C 363.424 52.174,363.998 52.287,364.083 52.426 C 364.169 52.565,364.516 52.678,364.854 52.678 C 365.193 52.678,365.469 52.791,365.469 52.930 C 365.469 53.069,365.674 53.182,365.924 53.182 C 366.544 53.182,369.029 54.430,369.532 54.993 C 369.756 55.245,370.016 55.451,370.110 55.451 C 370.353 55.451,371.519 56.646,371.519 56.896 C 371.519 57.010,371.745 57.267,372.023 57.467 C 372.300 57.667,372.527 57.971,372.527 58.144 C 372.527 58.558,373.356 60.342,373.598 60.449 C 373.702 60.496,373.787 60.864,373.787 61.269 C 373.787 61.673,373.900 62.004,374.039 62.004 C 374.178 62.004,374.291 62.514,374.291 63.138 C 374.291 63.762,374.405 64.272,374.543 64.272 C 374.689 64.272,374.795 65.070,374.795 66.163 L 374.795 68.053 384.247 68.053 L 393.699 68.053 393.699 64.776 C 393.699 62.760,393.602 61.500,393.447 61.500 C 393.305 61.500,393.195 60.786,393.195 59.861 C 393.195 58.960,393.093 58.223,392.968 58.223 C 392.844 58.223,392.662 57.429,392.565 56.459 C 392.467 55.488,392.285 54.694,392.161 54.694 C 392.036 54.694,391.934 54.468,391.934 54.190 C 391.934 53.913,391.821 53.686,391.682 53.686 C 391.544 53.686,391.430 53.346,391.430 52.930 C 391.430 52.514,391.317 52.174,391.178 52.174 C 391.040 52.174,390.926 52.004,390.926 51.796 C 390.926 51.588,390.813 51.418,390.674 51.418 C 390.536 51.418,390.422 51.191,390.422 50.914 C 390.422 50.636,390.323 50.410,390.202 50.410 C 390.080 50.410,389.918 50.098,389.841 49.716 C 389.764 49.335,389.466 48.773,389.179 48.467 C 388.892 48.161,388.658 47.781,388.658 47.623 C 388.658 47.465,388.318 47.017,387.902 46.629 C 387.486 46.240,387.146 45.855,387.146 45.774 C 387.146 45.351,384.401 42.596,383.981 42.596 C 383.892 42.596,383.501 42.256,383.113 41.840 C 382.724 41.424,382.267 41.084,382.096 41.084 C 381.925 41.084,381.602 40.873,381.378 40.616 C 381.154 40.358,380.715 40.067,380.403 39.969 C 380.091 39.870,379.836 39.684,379.836 39.555 C 379.836 39.425,379.619 39.319,379.353 39.319 C 379.087 39.319,378.832 39.234,378.786 39.130 C 378.649 38.823,376.551 37.807,376.053 37.807 C 375.800 37.807,375.553 37.686,375.504 37.539 C 375.455 37.391,374.935 37.206,374.349 37.128 C 373.763 37.049,373.283 36.886,373.283 36.766 C 373.283 36.645,372.886 36.547,372.401 36.547 C 371.916 36.547,371.519 36.434,371.519 36.295 C 371.519 36.156,371.065 36.043,370.510 36.043 C 369.956 36.043,369.502 35.929,369.502 35.791 C 369.502 35.652,368.992 35.539,368.368 35.539 C 367.744 35.539,367.234 35.425,367.234 35.287 C 367.234 35.141,366.436 35.035,365.343 35.035 C 364.251 35.035,363.453 34.928,363.453 34.783 C 363.453 34.622,361.484 34.531,358.049 34.531 C 354.718 34.531,352.585 34.627,352.489 34.783 M276.202 51.436 C 276.249 51.565,276.617 51.670,277.022 51.670 C 277.426 51.670,277.757 51.783,277.757 51.922 C 277.757 52.060,278.097 52.174,278.513 52.174 C 278.929 52.174,279.269 52.287,279.269 52.426 C 279.269 52.565,279.439 52.678,279.647 52.678 C 279.855 52.678,280.025 52.791,280.025 52.930 C 280.025 53.069,280.252 53.182,280.529 53.182 C 280.807 53.182,281.033 53.296,281.033 53.434 C 281.033 53.573,281.209 53.686,281.424 53.686 C 281.638 53.686,282.076 53.970,282.398 54.316 C 282.719 54.663,283.115 54.946,283.279 54.946 C 283.675 54.946,284.596 55.886,285.195 56.900 C 285.461 57.350,285.768 57.719,285.877 57.719 C 285.985 57.719,286.074 57.946,286.074 58.223 C 286.074 58.500,286.160 58.727,286.265 58.727 C 286.370 58.727,286.616 59.096,286.812 59.546 C 287.008 59.997,287.265 60.431,287.384 60.510 C 287.503 60.590,287.669 61.242,287.754 61.960 C 287.839 62.677,288.007 63.264,288.126 63.264 C 288.245 63.264,288.343 63.888,288.343 64.650 C 288.343 65.413,288.456 66.037,288.595 66.037 C 288.743 66.037,288.847 66.919,288.847 68.179 L 288.847 70.321 270.951 70.321 L 253.056 70.321 253.056 68.179 C 253.056 66.919,253.160 66.037,253.308 66.037 C 253.447 66.037,253.560 65.413,253.560 64.650 C 253.560 63.888,253.674 63.264,253.812 63.264 C 253.951 63.264,254.064 62.980,254.064 62.634 C 254.064 62.287,254.178 62.004,254.316 62.004 C 254.455 62.004,254.568 61.664,254.568 61.248 C 254.568 60.832,254.655 60.491,254.761 60.491 C 254.963 60.491,255.829 58.652,255.829 58.224 C 255.829 57.568,260.886 53.182,261.643 53.182 C 261.772 53.182,261.878 53.069,261.878 52.930 C 261.878 52.791,262.105 52.678,262.382 52.678 C 262.659 52.678,262.886 52.565,262.886 52.426 C 262.886 52.287,263.170 52.174,263.516 52.174 C 263.863 52.174,264.146 52.060,264.146 51.922 C 264.146 51.783,264.600 51.670,265.154 51.670 C 265.709 51.670,266.163 51.562,266.163 51.429 C 266.163 50.918,276.019 50.925,276.202 51.436 M141.399 88.739 C 141.399 92.942,141.266 93.510,140.283 93.510 C 140.065 93.510,139.887 93.623,139.887 93.762 C 139.887 93.900,139.716 94.014,139.509 94.014 C 139.301 94.014,139.130 94.127,139.130 94.266 C 139.130 94.405,138.904 94.518,138.626 94.518 C 138.349 94.518,138.122 94.631,138.122 94.770 C 138.122 94.909,137.895 95.022,137.618 95.022 C 137.341 95.022,137.114 95.133,137.114 95.269 C 137.114 95.405,136.830 95.588,136.484 95.675 C 136.137 95.762,135.854 95.934,135.854 96.058 C 135.854 96.181,135.627 96.282,135.350 96.282 C 135.072 96.282,134.846 96.396,134.846 96.534 C 134.846 96.673,134.619 96.786,134.342 96.786 C 134.064 96.786,133.837 96.900,133.837 97.038 C 133.837 97.177,133.667 97.290,133.459 97.290 C 133.251 97.290,133.081 97.404,133.081 97.543 C 133.081 97.681,132.854 97.795,132.577 97.795 C 132.300 97.795,132.073 97.908,132.073 98.047 C 132.073 98.185,131.860 98.299,131.600 98.299 C 131.340 98.299,130.985 98.469,130.813 98.677 C 130.640 98.885,130.343 99.055,130.152 99.055 C 129.961 99.055,129.805 99.168,129.805 99.307 C 129.805 99.445,129.578 99.559,129.301 99.559 C 129.023 99.559,128.796 99.672,128.796 99.811 C 128.796 99.950,128.570 100.063,128.292 100.063 C 128.015 100.063,127.788 100.176,127.788 100.315 C 127.788 100.454,127.618 100.567,127.410 100.567 C 127.202 100.567,127.032 100.681,127.032 100.819 C 127.032 100.958,126.692 101.071,126.276 101.071 C 125.860 101.071,125.520 101.178,125.520 101.308 C 125.520 101.438,125.009 101.621,124.386 101.714 C 123.762 101.808,123.251 101.985,123.251 102.108 C 123.251 102.231,122.975 102.331,122.636 102.331 C 122.298 102.331,121.951 102.445,121.865 102.583 C 121.779 102.722,121.206 102.836,120.590 102.836 C 119.974 102.836,119.471 102.949,119.471 103.088 C 119.471 103.242,118.294 103.340,116.446 103.340 C 114.598 103.340,113.422 103.242,113.422 103.088 C 113.422 102.949,113.145 102.836,112.806 102.836 C 112.468 102.836,112.121 102.722,112.035 102.583 C 111.950 102.445,111.603 102.331,111.264 102.331 C 110.926 102.331,110.649 102.226,110.649 102.096 C 110.649 101.967,110.403 101.783,110.103 101.688 C 109.389 101.461,108.381 100.443,108.381 99.948 C 108.381 99.734,108.267 99.559,108.129 99.559 C 107.990 99.559,107.876 99.389,107.876 99.181 C 107.876 98.973,107.763 98.803,107.624 98.803 C 107.486 98.803,107.372 98.585,107.372 98.320 C 107.372 98.054,107.240 97.792,107.078 97.739 C 106.875 97.671,106.784 96.673,106.784 94.518 C 106.784 92.363,106.875 91.365,107.078 91.297 C 107.240 91.243,107.372 90.982,107.372 90.716 C 107.372 90.451,107.486 90.233,107.624 90.233 C 107.763 90.233,107.876 90.063,107.876 89.855 C 107.876 89.647,107.971 89.477,108.086 89.477 C 108.201 89.477,108.456 89.165,108.653 88.784 C 109.057 88.002,109.518 87.461,109.782 87.461 C 109.880 87.461,110.143 87.249,110.368 86.990 C 110.592 86.732,111.144 86.439,111.594 86.340 C 112.045 86.241,112.413 86.056,112.413 85.928 C 112.413 85.801,112.640 85.696,112.917 85.696 C 113.195 85.696,113.422 85.583,113.422 85.444 C 113.422 85.306,113.875 85.192,114.430 85.192 C 114.984 85.192,115.438 85.079,115.438 84.940 C 115.438 84.775,119.933 84.688,128.418 84.688 L 141.399 84.688 141.399 88.739 M137.114 152.867 L 137.114 169.124 140.391 169.124 L 143.667 169.124 143.667 163.327 L 143.667 157.530 148.078 157.530 C 150.504 157.530,152.489 157.432,152.489 157.313 C 152.489 157.193,153.117 157.021,153.884 156.931 C 155.350 156.759,156.120 156.435,156.801 155.703 C 157.026 155.460,157.351 155.261,157.521 155.261 C 157.906 155.261,159.294 153.804,159.294 153.400 C 159.294 153.237,159.521 152.941,159.798 152.741 C 160.094 152.528,160.302 152.089,160.302 151.677 C 160.302 151.292,160.416 150.977,160.555 150.977 C 160.693 150.977,160.807 150.693,160.807 150.347 C 160.807 150.000,160.920 149.716,161.059 149.716 C 161.211 149.716,161.311 148.671,161.311 147.085 C 161.311 145.602,161.201 144.385,161.059 144.297 C 160.920 144.212,160.807 143.808,160.807 143.400 C 160.807 142.993,160.693 142.659,160.555 142.659 C 160.416 142.659,160.302 142.401,160.302 142.085 C 160.302 141.769,160.076 141.347,159.798 141.147 C 159.521 140.947,159.294 140.638,159.294 140.461 C 159.294 140.062,158.388 139.130,158.001 139.130 C 157.844 139.130,157.532 138.932,157.307 138.689 C 156.681 138.011,154.793 137.114,153.992 137.114 C 153.598 137.114,153.205 137.001,153.119 136.862 C 153.021 136.703,150.050 136.610,145.039 136.610 L 137.114 136.610 137.114 152.867 M205.608 137.207 C 204.957 137.767,204.915 137.928,204.915 139.864 C 204.915 142.748,205.327 143.163,208.192 143.163 C 211.035 143.163,211.471 142.735,211.460 139.961 C 211.449 137.156,210.887 136.610,208.019 136.610 C 206.576 136.611,206.190 136.706,205.608 137.207 M261.248 136.862 C 261.162 137.001,260.758 137.114,260.351 137.114 C 259.943 137.114,259.609 137.227,259.609 137.366 C 259.609 137.505,259.351 137.618,259.035 137.618 C 258.719 137.618,258.297 137.845,258.097 138.122 C 257.897 138.399,257.557 138.626,257.341 138.626 C 257.125 138.626,256.785 138.853,256.585 139.130 C 256.385 139.408,256.096 139.635,255.943 139.635 C 255.628 139.635,254.568 140.693,254.568 141.007 C 254.568 141.121,254.364 141.397,254.114 141.621 C 253.503 142.171,252.804 143.719,252.804 144.525 C 252.804 144.885,252.691 145.180,252.552 145.180 C 252.410 145.180,252.300 145.894,252.300 146.818 C 252.300 147.742,252.190 148.456,252.048 148.456 C 251.888 148.456,251.796 150.305,251.796 153.497 C 251.796 156.690,251.888 158.538,252.048 158.538 C 252.187 158.538,252.300 159.162,252.300 159.924 C 252.300 160.687,252.413 161.311,252.552 161.311 C 252.691 161.311,252.805 161.566,252.806 161.878 C 252.806 162.190,252.977 162.770,253.184 163.167 C 253.391 163.564,253.560 164.021,253.560 164.182 C 253.560 164.344,253.787 164.639,254.064 164.839 C 254.342 165.039,254.568 165.296,254.568 165.411 C 254.568 165.681,255.743 166.856,256.014 166.856 C 256.128 166.856,256.385 167.083,256.585 167.360 C 256.785 167.637,257.101 167.864,257.289 167.864 C 257.476 167.864,257.799 168.034,258.007 168.242 C 258.215 168.450,258.661 168.620,258.997 168.620 C 259.334 168.620,259.609 168.733,259.609 168.872 C 259.609 169.011,259.950 169.124,260.365 169.124 C 260.781 169.124,261.122 169.238,261.122 169.376 C 261.122 169.535,262.802 169.628,265.658 169.628 C 268.515 169.628,270.195 169.535,270.195 169.376 C 270.195 169.238,270.536 169.124,270.951 169.124 C 271.367 169.124,271.708 169.025,271.708 168.904 C 271.708 168.783,272.137 168.616,272.662 168.532 C 273.187 168.448,273.863 168.150,274.164 167.869 C 274.465 167.589,274.886 167.360,275.100 167.360 C 275.313 167.360,275.488 167.270,275.488 167.160 C 275.488 167.051,275.885 166.540,276.371 166.025 C 276.856 165.511,277.253 164.977,277.253 164.839 C 277.253 164.700,277.366 164.587,277.505 164.587 C 277.643 164.587,277.757 164.360,277.757 164.083 C 277.757 163.806,277.870 163.579,278.009 163.579 C 278.147 163.579,278.261 163.375,278.261 163.125 C 278.261 162.876,278.391 162.542,278.550 162.383 C 278.734 162.199,278.884 160.531,278.963 157.796 L 279.087 153.497 272.877 153.497 L 266.667 153.497 266.667 156.018 L 266.667 158.538 269.439 158.538 L 272.212 158.538 272.212 159.546 C 272.212 160.101,272.098 160.555,271.960 160.555 C 271.821 160.555,271.708 160.725,271.708 160.933 C 271.708 161.141,271.594 161.311,271.456 161.311 C 271.317 161.311,271.204 161.489,271.204 161.707 C 271.204 162.404,269.299 163.579,268.170 163.579 C 267.898 163.579,267.675 163.693,267.675 163.831 C 267.675 163.977,266.882 164.083,265.799 164.083 C 264.768 164.083,263.854 163.970,263.768 163.831 C 263.682 163.693,263.405 163.579,263.152 163.579 C 262.135 163.579,259.609 161.519,259.609 160.689 C 259.609 160.476,259.496 160.302,259.357 160.302 C 259.219 160.302,259.105 160.019,259.105 159.672 C 259.105 159.326,258.992 159.042,258.853 159.042 C 258.692 159.042,258.601 156.942,258.601 153.245 C 258.601 149.548,258.692 147.448,258.853 147.448 C 258.992 147.448,259.105 147.108,259.105 146.692 C 259.105 146.276,259.219 145.936,259.357 145.936 C 259.496 145.936,259.609 145.819,259.609 145.675 C 259.609 145.368,261.263 143.667,261.562 143.667 C 261.674 143.667,261.930 143.440,262.130 143.163 C 262.366 142.835,262.782 142.659,263.320 142.659 C 263.774 142.659,264.146 142.546,264.146 142.407 C 264.146 142.267,264.818 142.155,265.658 142.155 C 266.499 142.155,267.171 142.267,267.171 142.407 C 267.171 142.546,267.568 142.659,268.053 142.659 C 268.538 142.659,268.935 142.773,268.935 142.911 C 268.935 143.050,269.137 143.163,269.384 143.163 C 269.630 143.163,269.999 143.404,270.203 143.698 C 270.407 143.992,270.715 144.381,270.888 144.562 C 271.062 144.743,271.204 145.013,271.204 145.162 C 271.204 145.310,271.317 145.432,271.456 145.432 C 271.594 145.432,271.708 145.658,271.708 145.936 C 271.708 146.213,271.821 146.440,271.960 146.440 C 272.098 146.440,272.212 147.064,272.212 147.826 L 272.212 149.212 275.652 149.212 L 279.093 149.212 278.932 146.756 C 278.843 145.405,278.656 144.261,278.516 144.214 C 278.375 144.168,278.261 143.935,278.261 143.697 C 278.261 143.150,277.693 141.908,277.442 141.905 C 277.338 141.904,277.253 141.728,277.253 141.515 C 277.253 141.034,275.401 139.130,274.934 139.130 C 274.745 139.130,274.428 138.904,274.228 138.626 C 274.028 138.349,273.663 138.122,273.416 138.122 C 273.170 138.122,272.968 138.009,272.968 137.870 C 272.968 137.732,272.684 137.618,272.338 137.618 C 271.991 137.618,271.708 137.505,271.708 137.366 C 271.708 137.227,271.367 137.114,270.951 137.114 C 270.536 137.114,270.195 137.001,270.195 136.862 C 270.195 136.704,268.562 136.610,265.799 136.610 C 263.141 136.610,261.342 136.710,261.248 136.862 M363.685 142.588 C 363.674 145.885,363.608 148.440,363.538 148.267 C 363.468 148.094,363.250 147.952,363.054 147.952 C 362.858 147.952,362.697 147.839,362.697 147.700 C 362.697 147.561,362.470 147.448,362.193 147.448 C 361.916 147.448,361.689 147.335,361.689 147.196 C 361.689 147.057,361.462 146.944,361.185 146.944 C 360.907 146.944,360.680 146.859,360.679 146.755 C 360.677 146.651,360.371 146.424,359.998 146.251 C 359.167 145.865,353.371 145.810,353.371 146.188 C 353.371 146.326,353.088 146.440,352.741 146.440 C 352.394 146.440,352.111 146.553,352.111 146.692 C 352.111 146.830,351.941 146.944,351.733 146.944 C 351.220 146.944,349.338 148.802,349.338 149.309 C 349.338 149.533,349.225 149.716,349.086 149.716 C 348.948 149.716,348.834 150.057,348.834 150.473 C 348.834 150.888,348.721 151.229,348.582 151.229 C 348.421 151.229,348.330 153.623,348.330 157.908 C 348.330 162.193,348.421 164.587,348.582 164.587 C 348.721 164.587,348.834 164.871,348.834 165.217 C 348.834 165.564,348.926 165.848,349.038 165.848 C 349.150 165.848,349.437 166.292,349.677 166.834 C 350.015 167.601,350.363 167.925,351.237 168.284 C 351.855 168.538,352.361 168.831,352.362 168.935 C 352.363 169.039,352.703 169.124,353.119 169.124 C 353.535 169.124,353.875 169.238,353.875 169.376 C 353.875 169.527,354.883 169.628,356.396 169.628 C 357.908 169.628,358.916 169.527,358.916 169.376 C 358.916 169.238,359.256 169.124,359.672 169.124 C 360.088 169.124,360.428 169.016,360.428 168.884 C 360.428 168.751,360.825 168.568,361.311 168.477 C 361.796 168.386,362.193 168.211,362.193 168.088 C 362.193 167.965,362.420 167.864,362.697 167.864 C 362.974 167.864,363.201 167.750,363.201 167.612 C 363.201 167.473,363.314 167.360,363.453 167.360 C 363.592 167.360,363.705 167.757,363.705 168.242 L 363.705 169.124 366.479 169.124 L 369.254 169.124 369.189 152.930 L 369.124 136.736 366.415 136.664 L 363.705 136.593 363.685 142.588 M151.985 142.911 C 151.985 143.050,152.168 143.163,152.393 143.163 C 152.963 143.163,154.244 144.685,154.249 145.369 C 154.251 145.681,154.367 145.936,154.505 145.936 C 154.644 145.936,154.757 146.389,154.757 146.944 C 154.757 147.498,154.644 147.952,154.505 147.952 C 154.367 147.952,154.253 148.141,154.253 148.372 C 154.253 149.179,153.408 150.725,152.966 150.725 C 152.727 150.725,152.484 150.866,152.426 151.040 C 152.349 151.271,151.170 151.377,147.994 151.439 L 143.667 151.523 143.667 147.091 L 143.667 142.659 147.826 142.659 C 150.431 142.659,151.985 142.753,151.985 142.911 M188.028 145.684 C 187.820 145.818,187.288 145.930,186.845 145.932 C 186.403 145.934,185.971 146.049,185.885 146.188 C 185.800 146.326,185.478 146.440,185.170 146.440 C 184.862 146.440,184.447 146.667,184.247 146.944 C 184.047 147.221,183.690 147.448,183.452 147.448 C 183.215 147.448,182.951 147.669,182.865 147.939 C 182.779 148.209,182.495 148.498,182.234 148.581 C 181.972 148.664,181.610 149.067,181.429 149.476 C 181.248 149.886,181.014 150.221,180.909 150.221 C 180.804 150.221,180.718 150.561,180.718 150.977 C 180.718 151.393,180.605 151.733,180.466 151.733 C 180.326 151.733,180.214 152.405,180.214 153.245 L 180.214 154.757 183.239 154.757 L 186.263 154.757 186.263 153.989 C 186.263 153.419,186.552 152.929,187.383 152.086 L 188.502 150.950 190.528 150.937 L 192.553 150.924 193.567 151.979 C 194.496 152.946,194.581 153.148,194.581 154.400 L 194.581 155.766 189.792 155.766 C 186.767 155.766,185.003 155.858,185.003 156.018 C 185.003 156.156,184.663 156.270,184.247 156.270 C 183.831 156.270,183.491 156.383,183.491 156.522 C 183.491 156.660,183.373 156.774,183.228 156.774 C 183.084 156.774,182.829 156.887,182.661 157.025 C 181.381 158.082,180.718 158.797,180.718 159.122 C 180.718 159.332,180.577 159.552,180.403 159.610 C 180.010 159.742,179.951 166.020,180.340 166.298 C 180.479 166.397,180.717 166.703,180.870 166.978 C 181.269 167.700,183.266 169.088,183.932 169.107 C 184.244 169.117,184.499 169.238,184.499 169.376 C 184.499 169.529,185.591 169.628,187.272 169.628 C 188.952 169.628,190.044 169.529,190.044 169.376 C 190.044 169.238,190.328 169.124,190.674 169.124 C 191.021 169.124,191.304 169.021,191.304 168.894 C 191.304 168.768,191.758 168.588,192.313 168.494 C 192.867 168.400,193.321 168.220,193.321 168.094 C 193.321 167.967,193.491 167.864,193.699 167.864 C 193.907 167.864,194.077 167.750,194.077 167.612 C 194.077 167.473,194.190 167.360,194.329 167.360 C 194.468 167.360,194.581 167.757,194.581 168.242 L 194.581 169.124 197.606 169.124 L 200.630 169.124 200.630 160.443 C 200.630 154.928,200.538 151.706,200.378 151.607 C 200.239 151.521,200.126 151.235,200.126 150.970 C 200.126 150.382,199.352 148.708,199.080 148.708 C 198.971 148.708,198.486 148.311,198.000 147.826 C 197.515 147.341,197.001 146.944,196.858 146.944 C 196.715 146.944,196.597 146.830,196.597 146.692 C 196.597 146.553,196.257 146.440,195.841 146.440 C 195.425 146.440,195.085 146.326,195.085 146.188 C 195.085 146.049,194.695 145.936,194.218 145.936 C 193.741 145.936,193.280 145.822,193.195 145.684 C 192.995 145.360,188.528 145.360,188.028 145.684 M223.062 145.667 C 223.062 145.815,222.609 145.936,222.054 145.936 C 221.500 145.936,221.046 146.049,221.046 146.188 C 221.046 146.326,220.762 146.440,220.416 146.440 C 220.069 146.440,219.786 146.553,219.786 146.692 C 219.786 146.830,219.584 146.944,219.337 146.944 C 219.091 146.944,218.725 147.171,218.526 147.448 C 218.326 147.725,218.066 147.952,217.948 147.952 C 217.830 147.952,217.571 148.114,217.373 148.312 C 217.175 148.510,217.013 148.769,217.013 148.887 C 217.013 149.005,216.786 149.265,216.509 149.464 C 216.213 149.678,216.005 150.117,216.005 150.528 C 216.005 150.914,215.892 151.229,215.753 151.229 C 215.609 151.229,215.501 151.985,215.501 152.993 L 215.501 154.757 218.165 154.757 C 221.077 154.757,221.550 154.565,221.550 153.378 C 221.550 152.740,222.533 151.481,223.030 151.481 C 223.163 151.481,223.313 151.360,223.362 151.213 C 223.492 150.821,227.410 150.786,227.539 151.175 C 227.595 151.343,227.807 151.481,228.010 151.481 C 228.848 151.481,229.617 152.681,229.781 154.245 L 229.939 155.766 224.863 155.766 C 221.646 155.766,219.786 155.858,219.786 156.018 C 219.786 156.156,219.524 156.270,219.203 156.270 C 218.883 156.270,218.392 156.483,218.113 156.743 C 217.833 157.003,217.365 157.292,217.073 157.385 C 216.780 157.478,216.393 157.889,216.211 158.298 C 216.030 158.707,215.796 159.042,215.691 159.042 C 215.587 159.042,215.501 159.269,215.501 159.546 C 215.501 159.824,215.388 160.050,215.249 160.050 C 214.718 160.050,214.946 165.237,215.521 166.262 C 216.137 167.359,217.421 168.620,217.922 168.620 C 218.115 168.620,218.273 168.733,218.273 168.872 C 218.273 169.011,218.614 169.124,219.030 169.124 C 219.445 169.124,219.786 169.238,219.786 169.376 C 219.786 169.527,220.794 169.628,222.306 169.628 C 223.819 169.628,224.827 169.527,224.827 169.376 C 224.827 169.238,225.167 169.124,225.583 169.124 C 225.999 169.124,226.339 169.011,226.339 168.872 C 226.339 168.733,226.565 168.620,226.841 168.620 C 227.463 168.620,229.364 167.815,229.364 167.552 C 229.364 167.446,229.477 167.360,229.616 167.360 C 229.754 167.360,229.868 167.757,229.868 168.242 L 229.868 169.124 232.892 169.124 L 235.917 169.124 235.917 161.059 C 235.917 155.850,235.828 152.993,235.665 152.993 C 235.526 152.993,235.413 152.528,235.413 151.960 C 235.413 150.248,233.648 147.448,232.569 147.448 C 232.392 147.448,232.084 147.221,231.884 146.944 C 231.684 146.667,231.262 146.440,230.946 146.440 C 230.630 146.440,230.372 146.338,230.372 146.214 C 230.372 145.907,228.731 145.666,225.646 145.521 C 223.911 145.439,223.062 145.487,223.062 145.667 M306.994 145.684 C 306.994 145.822,306.484 145.936,305.860 145.936 C 305.236 145.936,304.726 146.049,304.726 146.188 C 304.726 146.326,304.499 146.440,304.222 146.440 C 303.945 146.440,303.718 146.553,303.718 146.692 C 303.718 146.830,303.491 146.944,303.214 146.944 C 302.936 146.944,302.710 147.057,302.710 147.196 C 302.710 147.335,302.600 147.448,302.466 147.448 C 302.106 147.448,300.441 149.035,300.441 149.379 C 300.441 149.541,300.326 149.713,300.184 149.760 C 300.043 149.807,299.857 150.440,299.771 151.167 C 299.685 151.894,299.517 152.489,299.398 152.489 C 299.278 152.489,299.181 152.999,299.181 153.623 L 299.181 154.757 302.173 154.757 L 305.166 154.757 305.330 153.732 C 305.818 150.675,313.043 149.612,313.043 152.597 C 313.043 152.815,313.157 152.993,313.296 152.993 C 313.434 152.993,313.548 153.617,313.548 154.379 L 313.548 155.766 308.633 155.766 C 305.524 155.766,303.718 155.858,303.718 156.018 C 303.718 156.156,303.434 156.270,303.088 156.270 C 302.741 156.270,302.457 156.383,302.457 156.522 C 302.457 156.660,302.283 156.774,302.069 156.774 C 301.369 156.774,299.685 158.384,299.685 159.054 C 299.685 159.325,299.572 159.546,299.433 159.546 C 299.294 159.546,299.181 159.830,299.181 160.176 C 299.181 160.523,299.067 160.807,298.929 160.807 C 298.783 160.807,298.677 161.605,298.677 162.697 C 298.677 163.789,298.783 164.587,298.929 164.587 C 299.067 164.587,299.181 164.871,299.181 165.217 C 299.181 165.564,299.282 165.848,299.405 165.848 C 299.528 165.848,299.704 166.250,299.797 166.742 C 299.917 167.384,300.192 167.770,300.770 168.113 C 301.213 168.375,301.712 168.710,301.880 168.857 C 302.047 169.004,302.416 169.124,302.699 169.124 C 302.982 169.124,303.214 169.238,303.214 169.376 C 303.214 169.529,304.306 169.628,305.986 169.628 C 307.666 169.628,308.759 169.529,308.759 169.376 C 308.759 169.238,309.099 169.124,309.515 169.124 C 309.931 169.124,310.271 169.016,310.271 168.884 C 310.271 168.751,310.668 168.568,311.153 168.477 C 311.638 168.386,312.035 168.211,312.035 168.088 C 312.035 167.965,312.262 167.864,312.539 167.864 C 312.817 167.864,313.043 167.750,313.043 167.612 C 313.043 167.473,313.157 167.360,313.296 167.360 C 313.434 167.360,313.548 167.757,313.548 168.242 L 313.548 169.124 316.572 169.124 L 319.597 169.124 319.597 160.317 C 319.597 154.718,319.505 151.454,319.345 151.355 C 319.206 151.269,319.093 150.979,319.093 150.710 C 319.093 150.441,318.979 150.221,318.841 150.221 C 318.702 150.221,318.589 150.019,318.589 149.772 C 318.589 149.525,318.348 149.157,318.054 148.953 C 317.379 148.486,317.047 148.153,316.580 147.479 C 316.376 147.185,316.007 146.944,315.760 146.944 C 315.514 146.944,315.312 146.830,315.312 146.692 C 315.312 146.553,315.085 146.440,314.808 146.440 C 314.531 146.440,314.304 146.326,314.304 146.188 C 314.304 146.049,313.793 145.936,313.170 145.936 C 312.546 145.936,312.035 145.822,312.035 145.684 C 312.035 145.532,311.027 145.432,309.515 145.432 C 308.003 145.432,306.994 145.532,306.994 145.684 M381.979 145.684 C 381.893 145.822,381.398 145.936,380.880 145.936 C 379.920 145.936,378.581 146.412,378.578 146.755 C 378.577 146.859,378.349 146.944,378.072 146.944 C 377.795 146.944,377.568 147.057,377.568 147.196 C 377.568 147.335,377.393 147.448,377.180 147.448 C 376.668 147.448,374.795 149.313,374.795 149.823 C 374.795 150.042,374.682 150.221,374.543 150.221 C 374.405 150.221,374.291 150.447,374.291 150.725 C 374.291 151.002,374.178 151.229,374.039 151.229 C 373.900 151.229,373.787 151.506,373.787 151.844 C 373.787 152.182,373.674 152.529,373.535 152.615 C 373.380 152.711,373.283 154.760,373.283 157.923 C 373.283 161.190,373.375 163.075,373.535 163.075 C 373.674 163.075,373.787 163.415,373.787 163.831 C 373.787 164.247,373.900 164.587,374.039 164.587 C 374.178 164.587,374.291 164.814,374.291 165.091 C 374.291 165.369,374.405 165.595,374.543 165.595 C 374.682 165.595,374.795 165.766,374.795 165.974 C 374.795 166.181,374.880 166.352,374.984 166.352 C 375.088 166.353,375.400 166.693,375.677 167.108 C 375.955 167.523,376.331 167.863,376.515 167.863 C 376.698 167.864,377.018 168.034,377.226 168.242 C 377.434 168.450,377.822 168.620,378.090 168.620 C 378.357 168.620,378.576 168.733,378.576 168.872 C 378.576 169.011,378.973 169.124,379.458 169.124 C 379.943 169.124,380.340 169.238,380.340 169.376 C 380.340 169.532,381.643 169.628,383.743 169.628 C 385.843 169.628,387.146 169.532,387.146 169.376 C 387.146 169.238,387.599 169.124,388.154 169.124 C 388.708 169.124,389.162 169.020,389.162 168.892 C 389.162 168.765,389.497 168.587,389.905 168.497 C 390.796 168.301,393.195 166.009,393.195 165.354 C 393.195 165.210,393.308 165.091,393.447 165.091 C 393.585 165.091,393.699 164.524,393.699 163.831 C 393.699 163.138,393.812 162.571,393.951 162.571 C 394.089 162.571,394.203 162.287,394.203 161.941 L 394.203 161.311 391.178 161.311 C 388.582 161.311,388.154 161.367,388.154 161.711 C 388.154 162.340,386.816 164.072,386.326 164.078 C 386.084 164.081,385.885 164.197,385.885 164.335 C 385.885 164.481,385.087 164.587,383.995 164.587 C 382.903 164.587,382.105 164.481,382.105 164.335 C 382.105 164.197,381.878 164.083,381.601 164.083 C 381.323 164.083,381.096 163.970,381.096 163.831 C 381.096 163.693,380.975 163.579,380.826 163.579 C 380.477 163.579,379.836 162.938,379.836 162.589 C 379.836 162.440,379.723 162.319,379.584 162.319 C 379.445 162.319,379.332 161.752,379.332 161.059 L 379.332 159.798 386.767 159.798 L 394.203 159.798 394.203 156.900 C 394.203 155.135,394.104 154.001,393.951 154.001 C 393.812 154.001,393.699 153.434,393.699 152.741 C 393.699 152.048,393.585 151.481,393.447 151.481 C 393.308 151.481,393.195 151.311,393.195 151.103 C 393.195 150.895,393.094 150.725,392.971 150.725 C 392.848 150.725,392.676 150.347,392.589 149.885 C 392.431 149.042,391.453 147.952,390.854 147.952 C 390.678 147.952,390.370 147.725,390.170 147.448 C 389.970 147.171,389.662 146.944,389.484 146.944 C 389.307 146.944,389.162 146.830,389.162 146.692 C 389.162 146.553,388.822 146.440,388.406 146.440 C 387.990 146.440,387.650 146.326,387.650 146.188 C 387.650 146.049,387.139 145.936,386.515 145.936 C 385.892 145.936,385.381 145.822,385.381 145.684 C 385.381 145.542,384.672 145.432,383.758 145.432 C 382.865 145.432,382.064 145.545,381.979 145.684 M164.587 157.522 L 164.587 169.124 167.612 169.124 L 170.636 169.124 170.636 161.979 C 170.636 154.123,170.651 154.044,172.212 153.659 C 172.593 153.565,172.905 153.376,172.905 153.240 C 172.905 153.104,173.075 152.993,173.283 152.993 C 173.491 152.993,173.661 152.880,173.661 152.741 C 173.661 152.602,173.888 152.489,174.165 152.489 C 174.442 152.489,174.669 152.376,174.669 152.237 C 174.669 152.091,175.467 151.985,176.560 151.985 L 178.450 151.985 178.450 148.960 L 178.450 145.936 176.181 145.936 C 174.837 145.936,173.913 146.038,173.913 146.188 C 173.913 146.326,173.598 146.440,173.213 146.440 C 172.801 146.440,172.362 146.648,172.149 146.944 C 171.949 147.221,171.640 147.448,171.463 147.448 C 171.286 147.448,171.141 147.561,171.141 147.700 C 171.141 148.424,170.655 147.814,170.589 147.007 L 170.510 146.062 167.549 145.991 L 164.587 145.920 164.587 157.522 M204.915 157.522 L 204.915 169.124 208.194 169.124 L 211.473 169.124 211.408 157.593 L 211.342 146.062 208.129 145.991 L 204.915 145.921 204.915 157.522 M283.302 157.530 L 283.302 169.124 286.326 169.124 L 289.351 169.124 289.351 162.049 C 289.351 155.011,289.436 154.253,290.226 154.253 C 290.374 154.253,290.721 153.993,291.484 153.308 C 291.677 153.135,292.014 152.993,292.232 152.993 C 292.449 152.993,292.628 152.880,292.628 152.741 C 292.628 152.602,292.798 152.489,293.006 152.489 C 293.214 152.489,293.384 152.376,293.384 152.237 C 293.384 152.091,294.182 151.985,295.274 151.985 L 297.164 151.985 297.164 148.960 L 297.164 145.936 294.896 145.936 C 293.552 145.936,292.628 146.038,292.628 146.188 C 292.628 146.326,292.401 146.440,292.124 146.440 C 291.846 146.440,291.619 146.553,291.619 146.692 C 291.619 146.830,291.495 146.944,291.342 146.944 C 291.190 146.944,290.748 147.284,290.359 147.700 C 289.421 148.704,289.351 148.669,289.351 147.196 L 289.351 145.936 286.326 145.936 L 283.302 145.936 283.302 157.530 M323.798 146.104 C 323.705 146.196,323.629 151.414,323.629 157.698 L 323.629 169.124 326.654 169.124 L 329.679 169.124 329.679 161.797 C 329.679 154.033,329.680 154.023,330.888 153.639 C 331.193 153.543,331.443 153.357,331.443 153.228 C 331.443 153.099,331.670 152.993,331.947 152.993 C 332.224 152.993,332.451 152.901,332.451 152.788 C 332.451 152.675,332.848 152.427,333.333 152.237 C 333.819 152.047,334.216 151.799,334.216 151.686 C 334.216 151.035,336.568 151.509,337.266 152.300 L 337.988 153.119 337.992 161.122 L 337.996 169.124 341.021 169.124 L 344.045 169.124 344.045 159.672 C 344.045 153.539,343.957 150.221,343.793 150.221 C 343.655 150.221,343.541 149.994,343.541 149.716 C 343.541 149.439,343.428 149.212,343.289 149.212 C 343.151 149.212,343.037 149.054,343.037 148.861 C 343.037 148.364,341.655 146.944,341.172 146.944 C 340.950 146.944,340.768 146.859,340.767 146.755 C 340.766 146.651,340.460 146.424,340.086 146.251 C 339.255 145.865,333.459 145.810,333.459 146.188 C 333.459 146.326,333.233 146.440,332.955 146.440 C 332.678 146.440,332.451 146.553,332.451 146.692 C 332.451 146.830,332.281 146.944,332.073 146.944 C 331.865 146.944,331.695 147.057,331.695 147.196 C 331.695 147.335,331.468 147.448,331.191 147.448 C 330.914 147.448,330.687 147.561,330.687 147.700 C 330.687 147.839,330.460 147.952,330.183 147.952 C 329.763 147.952,329.679 147.784,329.679 146.944 L 329.679 145.936 326.822 145.936 C 325.251 145.936,323.890 146.011,323.798 146.104 M386.137 151.481 C 386.337 151.758,386.638 151.985,386.807 151.985 C 386.975 151.985,387.256 152.382,387.432 152.867 C 387.607 153.352,387.842 153.749,387.952 153.749 C 388.063 153.749,388.154 154.089,388.154 154.505 L 388.154 155.261 383.743 155.261 L 379.332 155.261 379.332 154.379 C 379.332 153.894,379.445 153.497,379.584 153.497 C 379.723 153.497,379.836 153.322,379.836 153.108 C 379.836 152.669,380.932 151.481,381.337 151.481 C 381.482 151.481,381.601 151.367,381.601 151.229 C 381.601 150.696,385.737 150.925,386.137 151.481 M358.916 151.733 C 358.916 151.871,359.143 151.985,359.420 151.985 C 359.698 151.985,359.924 152.098,359.924 152.237 C 359.924 152.376,360.151 152.489,360.428 152.489 C 360.706 152.489,360.933 152.602,360.933 152.741 C 360.933 152.880,361.103 152.993,361.311 152.993 C 361.519 152.993,361.689 153.104,361.689 153.240 C 361.689 153.376,362.000 153.566,362.379 153.661 C 363.623 153.973,363.705 154.227,363.705 157.782 C 363.705 161.208,363.537 161.815,362.589 161.815 C 362.371 161.815,362.193 161.928,362.193 162.067 C 362.193 162.205,361.966 162.319,361.689 162.319 C 361.411 162.319,361.185 162.432,361.185 162.571 C 361.185 162.710,361.071 162.823,360.931 162.823 C 360.792 162.823,360.090 163.106,359.372 163.453 C 358.067 164.082,356.144 164.308,356.144 163.831 C 356.144 163.693,355.975 163.579,355.768 163.579 C 355.071 163.579,354.379 162.743,354.379 161.900 C 354.379 161.453,354.266 161.018,354.127 160.933 C 353.980 160.842,353.875 159.418,353.875 157.515 C 353.875 155.509,353.972 154.253,354.127 154.253 C 354.266 154.253,354.379 153.984,354.379 153.655 C 354.379 152.386,355.590 151.502,357.341 151.491 C 358.230 151.485,358.916 151.591,358.916 151.733 M194.581 160.660 C 194.581 161.848,194.359 162.319,193.798 162.319 C 193.535 162.319,193.321 162.415,193.321 162.533 C 193.321 162.651,192.810 162.957,192.187 163.215 C 191.563 163.472,191.052 163.773,191.052 163.883 C 191.052 163.993,190.712 164.083,190.296 164.083 C 189.880 164.083,189.540 164.197,189.540 164.335 C 189.540 164.474,189.030 164.587,188.406 164.587 C 187.782 164.587,187.272 164.474,187.272 164.335 C 187.272 164.197,187.073 164.082,186.830 164.081 C 186.401 164.079,185.759 163.063,185.759 162.386 C 185.759 161.860,187.449 160.302,188.019 160.302 C 188.301 160.302,188.532 160.189,188.532 160.050 C 188.532 159.896,189.708 159.798,191.556 159.798 L 194.581 159.798 194.581 160.660 M229.868 160.660 C 229.868 161.848,229.645 162.319,229.085 162.319 C 228.822 162.319,228.607 162.418,228.607 162.539 C 228.607 162.661,228.258 162.830,227.830 162.915 C 227.403 163.001,226.733 163.299,226.342 163.577 C 225.951 163.855,225.450 164.083,225.229 164.083 C 225.008 164.083,224.827 164.197,224.827 164.335 C 224.827 164.904,222.308 164.612,221.665 163.969 C 220.366 162.670,221.261 160.302,223.051 160.302 C 223.473 160.302,223.819 160.189,223.819 160.050 C 223.819 159.896,224.995 159.798,226.843 159.798 L 229.868 159.798 229.868 160.660 M313.548 160.692 C 313.548 161.765,312.740 162.683,311.572 162.940 C 311.133 163.036,310.775 163.219,310.775 163.347 C 310.775 163.475,310.548 163.579,310.271 163.579 C 309.994 163.579,309.767 163.693,309.767 163.831 C 309.767 163.970,309.483 164.083,309.137 164.083 C 308.790 164.083,308.507 164.197,308.507 164.335 C 308.507 164.700,306.258 164.646,305.902 164.272 C 304.350 162.645,304.975 160.302,306.961 160.302 C 307.379 160.302,307.791 160.189,307.876 160.050 C 307.965 159.907,309.223 159.798,310.790 159.798 L 313.548 159.798 313.548 160.692 " stroke="none" fill="#040404" fill-rule="evenodd"></path><path id="path1" d="" stroke="none" fill="#080404" fill-rule="evenodd"></path><path id="path2" d="" stroke="none" fill="#080404" fill-rule="evenodd"></path><path id="path3" d="" stroke="none" fill="#080404" fill-rule="evenodd"></path><path id="path4" d="" stroke="none" fill="#080404" fill-rule="evenodd"></path></g></svg>